<svg xmlns="http://www.w3.org/2000/svg" preserveAspectRatio="xMidYMid meet" data-bbox="30.7 148.5 450.5 215" viewBox="30.7 148.5 450.5 215" data-type="color" aria-hidden="true"><g><path d="M371.7 221.3h.8c8.1 0 13.2-5.5 13.2-14s-5.1-14-13.2-14h-.8c-8.1 0-13.2 5.5-13.2 14s5.2 14 13.2 14z" fill="#9e9e9e" data-color="1"></path><path d="M280 215.6c0-3.7-2.4-5.3-7.7-5.3H259v10.6h13.3c5.4-.1 7.7-1.7 7.7-5.3z" fill="#9e9e9e" data-color="1"></path><path d="M318.9 221.3h.8c8.1 0 13.2-5.5 13.2-14s-5.1-14-13.2-14h-.8c-8.1 0-13.2 5.5-13.2 14s5.2 14 13.2 14z" fill="#9e9e9e" data-color="1"></path><path d="M277.8 199c0-3.6-2.3-5.3-7.4-5.3H259v10.6h11.4c5.1 0 7.4-1.7 7.4-5.3z" fill="#9e9e9e" data-color="1"></path><path d="M126.5 193.7h-1.3c-2.3 5.2-4.6 10.9-6.7 16.6h14.7c-2-5.7-4.3-11.4-6.7-16.6z" fill="#9e9e9e" data-color="1"></path><path d="M479.7 148.5h-449v215h450.5v-215h-1.5zM407 188.1c0-.3.2-.5.5-.6h5.7c.3 0 .5.2.6.5v15.6h3.3c5.4-4.8 10.3-10 14.7-15.7.2-.3.5-.5.8-.4h6.9c.3 0 .5.2.5.4s-.1.3-.2.4c-5.3 6.6-11.2 12.7-17.6 18.3 7.1 6 13.6 12.5 19.6 19.6.3.4.1.7-.3.7h-7.3c-.4 0-.8-.2-1-.5-5-5.9-10.4-11.3-16.2-16.4h-3.3v16.3c0 .3-.2.5-.5.6h-5.7c-.3 0-.6-.2-.6-.5v-.1l.1-38.2zm-35.2-1.3h.8c12.4 0 20.3 8.5 20.3 20.4 0 11.9-7.9 20.4-20.3 20.4h-.8c-12.4 0-20.3-8.6-20.3-20.4s7.9-20.4 20.3-20.4zm-52.8 0h.8c12.4 0 20.3 8.5 20.3 20.4 0 11.9-7.9 20.4-20.3 20.4h-.8c-12.4 0-20.3-8.6-20.3-20.4s7.9-20.4 20.3-20.4zm-66.6 1.3c0-.3.2-.5.5-.6h17.7c9.1 0 14 3.6 14 10.2 0 4.3-2.2 7.2-6.6 8.5 6.2 1.3 8.9 5.1 8.9 9.9 0 6.9-5.3 10.8-14.6 10.8h-19.4c-.3 0-.5-.2-.6-.5v-.1l.1-38.2zm-47 0c0-.3.2-.5.5-.6H235c.3 0 .5.2.6.5v5.3c0 .3-.2.5-.5.6H212v10.2h18.6c.3 0 .5.2.6.5v5.2c0 .3-.2.5-.5.6H212v10.3h23.4c.3 0 .5.2.6.5v5.3c0 .3-.2.5-.5.6h-29.6c-.3 0-.6-.2-.6-.5v-.1l.1-38.4zm-30.8-1.3h.8c6.5-.2 12.5 3.3 15.7 8.9.2.2.2.5 0 .7l-.1.1-5 2.4c-.3.2-.7.1-1-.2-2.1-3.6-5.2-5.5-9.8-5.5h-.8c-7.2 0-12.2 5.7-12.2 14.1 0 8.3 4.9 14 12.2 14h.8c4.7 0 7.5-1.6 9.6-4 .2-.3.6-.4.9-.2l5.1 2.5c.2.1.3.2.3.4s-.1.3-.2.4c-3.1 4.6-8.8 7.4-15.6 7.4h-.8c-11.7 0-19.4-8-19.4-20.1 0-12.3 8-20.9 19.5-20.9zm-68.1 39.5c3.8-13 8.6-25.8 14.4-38.1.2-.5.6-.8 1.1-.7h8c.5 0 .9.3 1.1.7 5.8 12.3 10.6 25 14.4 38.1.1.4-.1.6-.5.6h-6.2c-.3 0-.6-.2-.6-.5-.8-3.2-1.8-6.6-2.9-10.1h-18.8c-1.1 3.4-2.1 6.8-2.9 10.1 0 .3-.3.5-.6.5h-6c-.4 0-.6-.2-.5-.6zm-36.4-38.2c0-.3.2-.5.5-.6h28.5c.3 0 .5.2.6.5v5.3c0 .3-.2.5-.5.6H76.9v10.6h18.3c.3 0 .5.2.6.5v5.3c0 .3-.2.5-.5.6H76.9v15.6c0 .3-.2.5-.5.6h-5.7c-.3 0-.6-.2-.6-.5v-38.5zM479.7 362H32.3v-95.7h447.5V362z" fill="#9e9e9e" data-color="1"></path><path d="M70.5 319.7c0 2.4 0 2.3 2.4 2.3.7 0 .9-.3.9-1v-10.7c0-.3 0-.6.1-.9.3.2.6.6.8.9 1 1.9 2.1 3.8 3 5.8.6 1.5 1.5 2.1 3 1.9.6 0 1.2-.4 1.4-.9.9-1.9 1.9-3.8 2.9-5.7.4-.8.8-1.5 1.2-2.3l.3.1v11.7c0 .7.2 1 .9.9H89c.6 0 .8-.2.8-.8v-16.1c0-.6-.2-.8-.8-.8h-2.2c-.7-.1-1.3.3-1.5.9-1.4 2.8-3 5.6-4.4 8.4-.2.3-.4.6-.6 1.1-.2-.4-.4-.6-.5-.9-1.3-2.3-2.7-4.6-3.7-7-.9-2.1-2.1-2.9-4.3-2.6-.9.1-1.1.3-1.1 1.2-.2 5.1-.2 9.8-.2 14.5z" fill="#9e9e9e" data-color="1"></path><path d="M378.8 319.7c0 2.3 0 2.3 2.3 2.3.8 0 1-.3 1-1.1v-10.4c0-.3 0-.7.1-1 .3.2.6.5.8.8 1.9 3.1 4 6.1 5.7 9.3 1 1.9 2.3 2.7 4.4 2.4.7-.1.9-.3.9-1v-15.7c0-.7-.2-1-.9-.9h-1.5c-.7-.1-.9.2-.9.9V317l-.2.1c-.2-.2-.3-.4-.5-.7-2-3.2-4.1-6.3-5.9-9.6-1-1.8-2.1-2.7-4.2-2.3-.8.1-1.1.2-1.1 1.1.1 4.6 0 9.4 0 14.1z" fill="#9e9e9e" data-color="1"></path><path d="M227.7 319.8c0 2.3 0 2.3 2.3 2.3.8 0 1-.3 1-1v-10.5c0-.3 0-.6.1-.9l.2-.1c.2.3.4.5.6.8 1.9 3.1 4 6.1 5.7 9.3 1 1.9 2.2 2.7 4.3 2.4.8-.1 1-.3 1-1v-14.4c0-2.3 0-2.2-2.3-2.3-.8 0-1 .2-1 1v10.7c0 .3 0 .6-.1.9-.3-.2-.5-.4-.7-.7-2-3.2-4.1-6.3-5.9-9.6-1-1.8-2.2-2.6-4.2-2.3-.8.1-1 .3-1 1.1v14.3z" fill="#9e9e9e" data-color="1"></path><path d="M259.2 322.3c3 .4 6-.3 8.6-1.9.4-.3.6-.8.6-1.2.1-2 0-4 0-5.9 0-.7-.2-1-.9-.9h-5.2c-2.3 0-2-.4-2 2.1v.2c.2.2.4.6.6.6.7.1 1.5 0 2.2 0 2.1.1 1.9-.4 1.9 2 .1.7-.3 1.3-1 1.5-1.3.5-2.7.7-4.1.6-1.5 0-2.9-.7-3.8-1.9-1-1.4-1.4-3.2-1.1-5 .4-4.1 3.2-6.2 7.2-5.1 1.1.3 2.1 1.3 3.3 2.1l2.2-1.6c-.2-.4-.4-.6-.6-.9-2.5-3.1-7.8-3.8-11.5-1.7-4.6 2.7-5 9.4-3 13 1.5 2.4 3.9 3.9 6.6 4z" fill="#9e9e9e" data-color="1"></path><path d="M426.2 319.7c0 2.4 0 2.4 2.4 2.4.7 0 .9-.3.9-.9v-4.6c0-.6.2-.9.8-.8h2.8c.5-.1 1 .2 1.2.7 1 1.7 2 3.3 2.9 4.9.2.3.4.6.7.6 1.1.1 2.2 0 3.6 0l-4.2-6.7c.3-.2.5-.3.7-.4 1.9-.9 3-2.8 2.9-4.9 0-2.3-1-4.1-3.2-4.9-1.1-.4-2.2-.6-3.4-.7-2.4-.1-4.7 0-7.1-.1-.8 0-1 .2-1 1v14.4zm3.3-11.7c0-.2.3-.7.5-.7 1.7-.1 3.3-.1 5 .1 1.8.2 2.5 1.2 2.4 3.1-.1 1.3-1.1 2.2-2.8 2.4-.7.1-1.5 0-2.2 0h-2.1c-.5 0-.8-.2-.8-.7V308z" fill="#9e9e9e" data-color="1"></path><path d="M123.4 319.8c0 2.3 0 2.3 2.3 2.3.8 0 1-.3 1-1-.1-1.5 0-3 0-4.5 0-.6.2-.8.8-.8.9.1 1.7.1 2.6 0 .7-.1 1.3.3 1.6.9.9 1.6 1.9 3.2 2.8 4.8.2.2.4.6.7.6 1.1.1 2.1 0 3.6 0l-4.2-6.7.7-.4c1.9-.9 3-2.9 2.9-5-.2-2.4-1.1-4.2-3.5-5-1.1-.3-2.2-.5-3.3-.6-2.3-.1-4.7 0-7 0-.9 0-1.1.3-1.1 1.1.1 4.7.1 9.5.1 14.3zm3.4-11.8c0-.2.3-.7.5-.7 1.6-.1 3.3-.1 4.9.1 1.8.2 2.5 1.3 2.4 3.1-.1 1.3-1.1 2.2-2.8 2.3-.7.1-1.5 0-2.2 0h-2.1c-.6 0-.8-.2-.8-.7 0-1.3 0-2.7.1-4.1z" fill="#9e9e9e" data-color="1"></path><path d="M333.8 319.7c0 2.4 0 2.3 2.4 2.4.7 0 1-.2.9-.9v-4.1c0-1.4 0-1.3 1.2-1.3h2.3c.5-.1 1.1.2 1.3.7 1 1.7 2 3.3 2.9 4.9.1.2.4.6.6.6 1.1.1 2.2 0 3.6 0l-4.2-6.7.7-.4c1.9-.9 3.1-2.9 2.9-5-.2-2.4-1.2-4.2-3.6-5-1-.3-2-.5-3.1-.5-2.4-.1-4.7 0-7.1 0-.8 0-1 .3-1 1 .2 4.7.2 9.6.2 14.3zm3.3-11.7c0-.5.2-.7.7-.7h2.1v-.1c1 0 2.1.1 3.1.3 1.4.3 1.9 1.2 1.9 2.7.1 1.2-.7 2.3-1.9 2.4-1.8.2-3.6.2-5.5.2-.2 0-.4-.4-.4-.6V308z" fill="#9e9e9e" data-color="1"></path><path d="M172 322.1h10.2c2.3 0 2 .4 2-2.1 0-.8-.2-1-1-1h-8c-.7 0-.9-.2-.9-.9v-2.4c0-.6.2-.9.8-.8h5c2.1 0 2.1 0 2.1-2.2 0-.7-.2-.9-.9-.9h-6.1c-.6 0-.9-.2-.9-.8v-2.5c0-.8.2-.9.9-.9h6.7c2.2 0 2.1 0 2.1-2.1 0-.7-.2-1-.9-1h-11.2c-.7 0-.9.2-.9.9v15.7c-.1.8.2 1 1 1z" fill="#9e9e9e" data-color="1"></path><path d="M404.7 322.1H415c2.4 0 2 .4 2.1-2.1 0-.7-.2-1-1-1H408c-.6 0-.9-.2-.9-.8v-2.4c0-.6.2-.9.9-.9h5c2.1 0 2.1 0 2.1-2.1 0-.7-.2-1-1-1h-5.8c-.8 0-1.2-.2-1.1-1v-2.3c0-.8.2-1.1 1-1 2.2.1 4.4 0 6.6 0 2.2 0 2.1 0 2.1-2.2 0-.7-.2-.9-.9-.9h-11.3c-.7 0-.9.2-.9.9v15.9c.1.7.3.9.9.9z" fill="#9e9e9e" data-color="1"></path><path d="M148.1 322.1h1.8c.7.1.9-.2.9-.9v-5.9c0-.3 0-.6.1-1.1.4.3.6.5.8.7 2.1 2.2 4.2 4.4 6.4 6.6.2.2.5.6.8.6 1.4.1 2.7 0 4.1 0l.2-.3c-3-3-5.9-5.9-8.8-9l8-8.2c-1.1-.1-2.2-.2-3.3-.2-.6 0-1.2.2-1.6.7-1.6 1.8-3.2 3.6-4.9 5.3-.5.5-1 1-1.6 1.4l-.2-.1v-6.5c0-.6-.2-.9-.8-.8h-1.9c-.5 0-.7.2-.7.7v16.2c0 .6.2.8.7.8z" fill="#9e9e9e" data-color="1"></path><path d="M311.1 322.1c.4.1.9-.2.9-.7v-.1c.2-.9.5-1.8.8-2.8 0-.4.4-.7.9-.7h6.2c.5-.1.9.2.9.7.2.9.5 1.9.8 2.8.1.3.4.6.7.6 1 .1 2 0 3.1 0 0-.2 0-.3-.1-.5-1.6-5.6-3.6-11.2-6-16.5-.2-.3-.6-.6-1-.6-.9-.1-1.8 0-2.7 0-.5-.1-1 .3-1.1.8-2.3 5.2-4.3 10.6-5.9 16.1-.1.3-.1.5-.1.8.8.1 1.7 0 2.6.1zm5.5-14.8h.4c.9 2.4 1.8 4.9 2.7 7.5h-5.8l2.7-7.5z" fill="#9e9e9e" data-color="1"></path><path d="M100.8 322.1c.6 0 .9-.2 1-.8.2-.9.5-1.7.7-2.6.1-.6.4-.8 1-.7h6c.5-.1.9.2 1 .7v.1c.2.9.5 1.8.7 2.7.1.3.4.6.6.6 1 .1 2 0 3 0l.1-.2c-1.6-5.8-3.6-11.4-6.1-16.9-.2-.3-.5-.5-.9-.5-.9-.1-1.8 0-2.6 0-.6-.1-1.2.3-1.4.9-1.7 4.4-3.3 8.8-5 13.2-.4 1.1-.7 2.3-1.1 3.6 1.3-.1 2.1-.2 3-.1zm5.6-14.8h.4c.9 2.4 1.8 4.9 2.7 7.5h-5.8l2.7-7.5z" fill="#9e9e9e" data-color="1"></path><path d="M289.2 322.1h1.3c.7.1 1-.2 1-.9-.1-1.3 0-2.6 0-3.9 0-.6.2-.8.8-.8 1.3 0 2.7.1 3.9 0 4-.2 6.7-2.1 6.4-6.8 0-2.1-1.4-4.1-3.4-4.7-1-.3-2-.5-3-.6-2.4-.1-4.7 0-7.1 0-.7 0-.9.2-.9.9V321c0 .8.2 1.2 1 1.1zm2.6-14.4c.4-.5 1.8-.2 2.7-.2h1.9c1.6 0 2.8 1.2 2.9 2.8v.2c.1 1.5-1.1 2.9-2.6 2.9h-.2c-1.3.1-2.7 0-4 0-.5 0-.8-.2-.8-.7v-2.3c-.2-.9-.4-2.2.1-2.7z" fill="#9e9e9e" data-color="1"></path><path d="M356.5 307.5h4.1c.8 0 1 .3 1 1v11.1c0 2.5 0 2.5 2.6 2.5.7 0 .9-.3.9-1v-13.6h3.7c2.1 0 2 0 2.1-2.1 0-.8-.3-1-1.1-1H358c-2.5 0-2.1-.6-2.2 2.3-.1.6.2.8.7.8z" fill="#9e9e9e" data-color="1"></path><path d="M192.5 307.5h3.9c.9 0 1.1.2 1.1 1.1v11.1c0 2.5 0 2.4 2.4 2.5.8 0 1-.2 1-1v-13.5c.1 0 .3-.1.4-.1h3.2c2.1 0 2.1 0 2.1-2.1 0-.8-.2-1-1-1h-11.8c-2.6 0-2.2-.6-2.2 2.3 0 .5.3.7.9.7z" fill="#9e9e9e" data-color="1"></path><path d="M214.6 313.1v8.1c0 .6.2.9.8.8h1.7c.7.1.9-.2.9-.9v-15.8c0-.7-.2-1-.9-.9-.5.1-1.1.1-1.6 0-.7-.1-.9.2-.9.9v7.8z" fill="#9e9e9e" data-color="1"></path></g></svg>