<svg xmlns="http://www.w3.org/2000/svg" preserveAspectRatio="xMidYMid meet" data-bbox="27.85 203.45 456.35 105.15" viewBox="27.85 203.45 456.35 105.15" data-type="color" aria-hidden="true"><g><path d="M105.6 289.2c-7.3 0-13.7 4.1-17 10.1l10.7 7.1c1.7 1.4 3.9 2.2 6.3 2.2s4.6-.8 6.3-2.2l10.7-7.1c-3.2-6.1-9.6-10.1-17-10.1zm0-38.7c-20.7 0-39 10.9-49.3 27.3l16.1 10.7c6.8-11.2 19.1-18.7 33.1-18.7s26.3 7.5 33.1 18.7l16.1-10.7c-10.1-16.3-28.3-27.3-49.1-27.3zM31 251l69.8-46.2c2.7-1.8 7.1-1.8 9.8 0l69.8 46.2c4.2 2.8 4.2 7.3 0 10.1l-9.3 6.2c-13.7-21.6-37.9-36-65.3-36-27.5 0-51.6 14.4-65.3 36L31 261c-4.2-2.7-4.2-7.3 0-10zm443.4 4.2c0-8.8-7.2-16-16-16s-16 7.2-16 16 7.2 16 16 16c8.9 0 16-7.2 16-16zm9.8 0c0 14.2-11.5 25.8-25.8 25.8-14.2 0-25.8-11.5-25.8-25.8 0-14.2 11.5-25.8 25.8-25.8 14.2 0 25.8 11.5 25.8 25.8zm-63.7-24-10.2 17.1-10.1-17.1h-12.1l17.3 27.3v22.4h9.9v-22.4l17.4-27.3h-12.2zm-49.8 49.7h9.9v-49.7h-9.9v49.7zm-28.9-22.1-10.2-27.6h-11.2l20.9 51.5h1l20.9-51.5H352l-10.2 27.6zm-30.9 7.5-4.5-12.9-4.7 12.9h9.2zm-4.1-36.9 20.9 51.5h-11.2l-2-5.4H298l-1.9 5.4h-11.3l20.9-51.5h1.1zm-45.2 1.8h-9.9v49.7h25.7V271h-15.8v-39.8zm-34.9 24.6 17.5 25.2h-12.3l-13.2-19.5V281h-9.9v-49.7h9.9v19.8l12.5-19.8h11.6l-16.1 24.5z" fill="#9e9e9e" data-color="1"></path></g></svg>