<svg xmlns="http://www.w3.org/2000/svg" preserveAspectRatio="xMidYMid meet" data-bbox="85.335 207.275 341.465 97.181" viewBox="85.335 207.275 341.465 97.181" data-type="color" aria-hidden="true"><g><path d="M120 243.5v16.7c-.8-.1-1.6-.3-2.4-.4-4.9-.6-9.1 1-12.3 4.7-3.9 4.4-4.6 10.9-1.7 16 2.3 4 5.8 6.4 10.4 7.1 8.4 1.2 15.9-5.4 15.9-13.9v-66.2c.7-.3 15-.3 16.6 0 .1 6.3 2.3 11.8 6.8 16.3s10 6.7 16.3 7v16.4c-4.1.1-8.1-.6-12-1.8-3.9-1.2-7.5-3.1-11-5.5v33.8c0 4.6-.9 9.1-2.9 13.2-4.5 9.1-11.7 14.9-21.7 16.9-10 2-18.9-.6-26.6-7.4-5.4-4.8-8.6-10.9-9.7-18-2.5-16.1 8.1-31.3 24.1-34.7 3.1-.7 6.2-.7 9.4-.4.1 0 .2 0 .4.1 0 0 .2.1.4.1z" fill="#9e9e9e" data-color="1"></path><path d="M356.2 243c1.7.1 3.3.1 5 .3 4.7.6 8.7 2.5 12.1 5.8 5 4.8 7.2 10.7 6.7 17.6-.8 9.8-8 17.3-16.8 19.3-1.5.4-3.1.6-4.7.6-1.7 0-3.4.1-5 0-9-.3-17.1-6.5-19.9-15.2-3.9-12.4 3.8-25.4 16.6-28 2-.4 4-.4 6-.4zm-1.3 11.2c-5.9 0-10.7 4.7-10.7 10.5 0 5.9 4.7 10.6 10.6 10.7 5.9 0 10.7-4.7 10.8-10.5-.1-5.8-4.9-10.6-10.7-10.7z" fill="#9e9e9e" data-color="1"></path><path d="M384.4 286.3v-53.1H397v24.4c.1 0 .1.1.2.1l.9-.9c3.6-3.6 7.3-7.2 10.9-10.8.5-.5.9-.7 1.6-.7h14.1c0 .1.1.1.1.1v.1c0 .1-.1.1-.1.2l-.2.2c-5.1 4.9-10.1 9.9-15.2 14.8v.1s0 .1-.1.2c5.8 8.4 11.7 16.9 17.6 25.5-.4 0-.6.1-.8.1h-11.9c-.6 0-.9-.2-1.3-.7-3.7-5.4-7.5-10.7-11.2-16.1-.2-.3-.4-.5-.6-.8l-3.6 3.3c-.4.3-.3.7-.3 1.1v13c-4.3-.1-8.4-.1-12.7-.1z" fill="#9e9e9e" data-color="1"></path><path d="M260.9 286.3h-12.6v-53c.7-.2 11.3-.3 12.6 0v24.4c.1 0 .1 0 .2.1.3-.2.5-.5.8-.7 3.7-3.7 7.4-7.3 11.1-11 .4-.4.7-.6 1.3-.6h14.3c0 .1 0 .1.1.1v.1c-5.2 5.1-10.3 10.1-15.6 15.3 5.9 8.5 11.7 17 17.7 25.6-.4 0-.7.1-1 .1h-11.7c-.6 0-1-.2-1.3-.7-3.7-5.4-7.5-10.7-11.2-16-.2-.3-.4-.5-.6-.9-.9.8-1.6 1.6-2.5 2.3-1.1.8-1.4 1.8-1.4 3.2.1 3.6 0 7.1 0 10.7-.2.2-.2.6-.2 1z" fill="#9e9e9e" data-color="1"></path><path d="M200.8 286.3v-42.1H188v-10.9c.6-.2 38.6-.3 39.9 0-1.2 3.7-2.4 7.5-3.6 11.3h-10.5v41.8c-4.4-.1-8.7-.1-13-.1z" fill="#9e9e9e" data-color="1"></path><path d="M306.5 244.2h-12.7c-.2-.7-.2-9.9-.1-11h39.8c-1.2 3.8-2.4 7.5-3.6 11.3h-10.5v41.7c-.7.2-11.7.3-13 .1v-34.8c.1-2.5.1-4.8.1-7.3z" fill="#9e9e9e" data-color="1"></path><path d="M242.8 286.3h-12.5v-36c.6-.2 11.3-.2 12.5-.1v36.1z" fill="#9e9e9e" data-color="1"></path><path d="M236.5 245.7c-3.5 0-6.3-2.7-6.3-6.2s2.8-6.3 6.3-6.3 6.3 2.8 6.3 6.3c0 3.4-2.8 6.2-6.3 6.2z" fill="#9e9e9e" data-color="1"></path></g></svg>