<svg xmlns="http://www.w3.org/2000/svg" preserveAspectRatio="xMidYMid meet" data-bbox="23 198.8 466 114.2" viewBox="23 198.8 466 114.2" data-type="tint" aria-hidden="true"><g><path d="M145.5 239.3h47.1v8.8H174v49.5h-10.2v-49.5h-18.5l.2-8.8zm45.1 16.1h8.7v8.2h.2c.3-1.2.9-2.3 1.6-3.3.8-1.1 1.7-2.1 2.9-3 1.1-.9 2.3-1.6 3.7-2.2 1.3-.5 2.7-.9 4.1-.9 1.1 0 1.9.1 2.3.1.4.1.9.2 1.2.2v8.9c-.6-.2-1.3-.2-2-.3s-1.3-.2-2-.2c-1.6 0-3 .3-4.4.9-1.4.6-2.6 1.6-3.6 2.7-1 1.2-1.9 2.7-2.5 4.5s-.9 3.9-.9 6.2v20h-9.3v-41.8zm67.4 42.2h-9.2v-5.9h-.2c-1.2 2.2-2.9 3.8-5.1 5.1s-4.6 1.9-6.9 1.9c-5.5 0-9.6-1.3-12-4.1-2.5-2.7-3.7-6.9-3.7-12.4v-26.8h9.3v25.9c0 3.7.7 6.4 2.2 7.8 1.4 1.6 3.4 2.3 6 2.3 1.9 0 3.6-.3 4.9-.9 1.3-.6 2.4-1.4 3.2-2.4.9-1 1.4-2.3 1.8-3.6.4-1.4.5-3 .5-4.6v-24.5h9.3l-.1 42.2zm15.9-13.5c.3 2.7 1.3 4.6 3.1 5.7 1.8 1.1 4 1.6 6.4 1.6.9 0 1.9-.1 3-.2 1.1-.2 2.2-.4 3.1-.8 1-.4 1.8-.9 2.4-1.7.6-.8.9-1.7.9-2.9s-.5-2.2-1.3-3-1.9-1.3-3.1-1.9c-1.2-.5-2.7-.9-4.3-1.2-1.6-.3-3.3-.7-5-1.1-1.7-.4-3.4-.9-5-1.4s-3-1.2-4.3-2.3c-1.2-.9-2.3-2.1-3-3.6-.8-1.5-1.2-3.2-1.2-5.4 0-2.3.5-4.2 1.7-5.7 1.1-1.6 2.6-2.8 4.3-3.7 1.7-.9 3.6-1.6 5.7-2 2.1-.4 4.1-.5 6-.5 2.2 0 4.3.2 6.2.7 1.9.5 3.8 1.2 5.4 2.3 1.6 1 3 2.4 4 4 1.1 1.6 1.7 3.6 2 6h-9.7c-.5-2.3-1.5-3.7-3-4.5-1.6-.8-3.4-1.2-5.5-1.2-.6 0-1.5.1-2.3.2-.9.2-1.7.3-2.6.6-.8.3-1.5.8-2 1.3s-.9 1.3-.9 2.3c0 1.2.4 2 1.2 2.7.8.7 1.8 1.2 3.1 1.8 1.2.5 2.7.9 4.3 1.2 1.6.3 3.3.7 5 1.1s3.3.9 5 1.4c1.6.5 3.1 1.2 4.3 2.3 1.2.9 2.3 2.1 3.1 3.5.8 1.4 1.2 3.2 1.2 5.2 0 2.5-.5 4.6-1.7 6.4-1.2 1.7-2.6 3.2-4.4 4.3-1.8 1.1-3.9 1.9-6.1 2.4-2.3.5-4.4.8-6.6.8-2.6 0-5.1-.3-7.4-.9-2.3-.6-4.3-1.6-5.9-2.7-1.6-1.2-3-2.7-3.9-4.6-.9-1.8-1.5-4-1.6-6.5h9.4zm30.6-28.7h7.1v-12.7h9.3v12.7h8.4v6.9h-8.4v22.5c0 1 .1 1.8.2 2.6.1.7.3 1.3.5 1.8.3.5.8.9 1.3 1.1.6.2 1.4.4 2.5.4.6 0 1.3 0 1.9-.1.6-.1 1.3-.2 1.9-.3v7.2c-1 .2-2 .2-3 .3-1 .2-1.9.2-3 .2-2.5 0-4.4-.2-5.9-.7s-2.6-1.2-3.5-2c-.9-.9-1.4-2-1.7-3.3-.3-1.3-.5-3-.5-4.7v-24.8h-7.1v-7.1zm31.3 0h8.8v5.7h.2c1.3-2.5 3.1-4.2 5.4-5.3 2.3-1.1 4.8-1.6 7.6-1.6 3.3 0 6.2.5 8.7 1.8 2.5 1.2 4.5 2.7 6.1 4.8 1.6 2 2.9 4.4 3.6 7.1.8 2.7 1.2 5.7 1.2 8.7 0 2.9-.4 5.6-1.1 8.2-.8 2.6-1.9 5-3.3 7.1-1.5 2-3.3 3.6-5.7 4.9-2.3 1.2-5 1.9-8.1 1.9-1.3 0-2.7-.2-4-.4-1.3-.2-2.6-.6-3.9-1.2s-2.4-1.2-3.4-2.1c-1.1-.9-1.9-1.9-2.6-3h-.2v21h-9.3v-57.6zm32.6 21.1c0-1.9-.2-3.7-.8-5.5-.5-1.8-1.2-3.3-2.3-4.7-1-1.4-2.3-2.5-3.6-3.3-1.5-.9-3.2-1.2-5-1.2-3.9 0-6.8 1.3-8.9 4-1.9 2.7-3 6.4-3 10.9 0 2.2.2 4.1.8 5.9.5 1.8 1.2 3.3 2.3 4.7 1 1.3 2.3 2.3 3.7 3.1 1.5.8 3.1 1.2 5 1.2 2.2 0 3.9-.5 5.4-1.3s2.6-2 3.6-3.3c.9-1.4 1.6-3 2-4.7.5-2.1.8-3.9.8-5.8zm16.4-37.2h9.3v8.8h-9.3v-8.8zm0 16.1h9.3v42.2h-9.3v-42.2zm17.6-16.1h9.3v58.2h-9.3v-58.2zm37.7 59.4c-3.3 0-6.4-.5-9-1.7-2.6-1.2-4.8-2.6-6.7-4.6-1.8-1.9-3.2-4.3-4.1-7.1-.9-2.7-1.5-5.7-1.5-8.9s.5-6.1 1.5-8.9c.9-2.7 2.3-5 4.1-7.1 1.8-1.9 4-3.5 6.7-4.6 2.6-1.1 5.7-1.7 9-1.7s6.4.5 9 1.7c2.6 1.1 4.8 2.6 6.7 4.6 1.8 1.9 3.2 4.3 4.1 7.1.9 2.7 1.5 5.7 1.5 8.9 0 3.3-.5 6.2-1.5 8.9s-2.3 5-4.1 7.1c-1.8 1.9-4 3.5-6.7 4.6-2.6 1.1-5.6 1.7-9 1.7zm0-7.3c2 0 3.9-.5 5.4-1.3 1.6-.9 2.7-2 3.7-3.4s1.7-3 2.2-4.7c.5-1.8.7-3.6.7-5.4 0-1.8-.2-3.6-.7-5.4-.5-1.8-1.2-3.3-2.2-4.7-1-1.4-2.3-2.5-3.7-3.3-1.6-.9-3.3-1.3-5.4-1.3-2 0-3.9.5-5.4 1.3-1.6.9-2.7 2-3.7 3.3-1 1.4-1.7 3-2.2 4.7-.5 1.8-.7 3.6-.7 5.4 0 1.9.2 3.6.7 5.4.5 1.8 1.2 3.3 2.2 4.7 1 1.4 2.3 2.6 3.7 3.4 1.6.9 3.4 1.3 5.4 1.3zm24.1-36h7.1v-12.7h9.3v12.7h8.4v6.9h-8.4v22.5c0 1 .1 1.8.2 2.6.1.7.3 1.3.5 1.8.3.5.8.9 1.3 1.1.6.2 1.4.4 2.5.4.6 0 1.3 0 1.9-.1.6-.1 1.3-.2 1.9-.3v7.2c-1 .2-2 .2-3 .3-1 .2-1.9.2-3 .2-2.5 0-4.4-.2-5.9-.7-1.5-.5-2.6-1.2-3.5-2-.9-.9-1.4-2-1.7-3.3-.3-1.3-.5-3-.5-4.7v-24.8h-7.1v-7.1z" fill="#ABABAB"></path><path d="M134.6 239.3H92l-13.1-40.5-13.2 40.5H23l34.5 25.1-13.2 40.5 34.5-25.1 34.5 25.1-13.1-40.5 34.4-25.1z" fill="#8C8C8C"></path><path d="m103.1 273.5-3-9.2-21.3 15.5 24.3-6.3z" fill="#4F4F4F"></path></g></svg>