<svg xmlns="http://www.w3.org/2000/svg" preserveAspectRatio="xMidYMid meet" data-bbox="88.639 205.882 334.561 100.338" viewBox="88.639 205.882 334.561 100.338" data-type="color" aria-hidden="true"><g><path d="M159.8 214.8c7.9-11.7 17.8-11.4 26.9.7 3.4-6.6 8.8-9.7 16.2-8.9 7 .8 12.1 5.4 12.3 12.4.4 14.1.3 28.3.2 42.4 0 .9-1.6 2.5-2.7 2.7-2.5.4-5.1.1-7.6.2-2.8.1-3.9-1-3.9-3.9.1-10.1 0-20.2 0-30.3 0-1.5 0-3-.2-4.5-.3-3.3-1.7-5.5-5.2-5.9-3.3-.3-6.4 1.5-7.2 4.8-.7 2.7-.9 5.5-.9 8.3-.1 9-.2 18.1 0 27.1.1 3.1-.9 4.4-4.1 4.4-12.3-.2-9.9 1.2-10.1-9.8-.1-8.2 0-16.5-.1-24.7 0-1.8-.2-3.7-.6-5.5-.6-2.8-2.2-4.5-5.3-4.7-3.2-.2-5.6 1.1-6.4 4.2-.7 2.8-1.1 5.7-1.1 8.6-.1 9.2-.2 18.3 0 27.5.1 3.4-1.2 4.5-4.4 4.4-11.7-.2-9.9 1.1-9.9-9.7-.1-14.3.1-28.5-.1-42.8 0-3.3.9-4.9 4.4-4.4.5.1.9 0 1.4 0 7.4.1 7.4.1 8.4 7.4z" fill="#9e9e9e" data-color="1"></path><path d="M256.9 257.8c-3.9 3.8-8.2 6.6-13.7 7.1-8.3.8-14.7-2.2-17.3-8.6-3.1-7.5-1-16.6 5.1-21.5 5-4.1 11.1-4.9 17.3-5.7 2.2-.3 4.3-.5 6.4-.8 1.5-8.3-2.2-12.5-9.1-11-2.8.7-4.8 2.4-5.6 5.2-.6 2.1-1.8 2.8-3.9 2.5-2.3-.3-4.6-.6-6.9-.8-2.8-.2-3.2-1.7-2.6-4 1.6-5.7 5.2-9.8 10.7-12 7-2.8 14.3-3.1 21.5-.7 7.3 2.4 10.7 7.6 10.8 16 .1 6.5.1 13 0 19.5-.1 4 .6 7.6 3.3 10.7 1.5 1.8 1.3 3.2-.5 4.7-1.9 1.5-3.8 3.1-5.5 4.8-2 2-3.8 1.8-5.6-.2-1.4-1.8-2.8-3.3-4.4-5.2zm-1.7-21.4c-3.4.5-6 .7-8.5 1.4-5.1 1.4-7.6 4.9-6.8 10.2.3 2.1 1.8 4.6 3.5 5.8 2.3 1.6 5.4.8 7.3-1.4 1.6-1.8 2.9-4 3.5-6.2.8-2.8.7-5.9 1-9.8z" fill="#9e9e9e" data-color="1"></path><path d="M121.2 257.7c-3.9 3.9-8.2 6.6-13.7 7.2-8.3.9-14.8-2.2-17.4-8.5-3.2-7.7-1-16.9 5.2-21.8 5-3.9 11-4.8 17-5.6 2.2-.3 4.3-.5 6.5-.8 1.7-8-2.1-12.7-8.9-10.9-2.1.6-3.7 2.8-5.4 4.3-.3.3-.3.9-.5 1.3-.9 2-7.8 2.6-11.8.9-3-1.3-1.4-3.6-.8-5.3 3-8 9.6-11.2 17.5-12.3 2.8-.4 5.8-.4 8.7 0 10.9 1.2 16.1 7 16.3 17.8.1 6.5-.3 13 .2 19.5.2 3.3 1.4 6.7 3 9.7 1.3 2.5 1.4 3.9-.9 5.5-1.6 1.1-3 2.6-4.5 3.8-3.2 2.8-4 2.8-6.8-.4-1.3-1.3-2.4-2.8-3.7-4.4zm-1.5-20.4c-.4-.4-.9-.8-1.3-1.2-3.7 1.2-7.5 1.9-10.9 3.7-3.2 1.6-4.2 6.4-3.1 10.2.8 2.8 2.7 4.3 5.5 4.5 3.1.3 6.7-2 7.8-5.8 1.2-3.7 1.4-7.6 2-11.4z" fill="#9e9e9e" data-color="1"></path><path d="M394.6 216.4c3.2-7.4 8.2-10.7 15.7-9.8 6.2.7 10.6 4.3 11.9 10.4.6 2.6.9 5.3.9 7.9.1 11.9 0 23.9.1 35.8 0 2.5-1 3.6-3.4 3.6s-4.9-.1-7.3 0c-2.7.1-3.6-1.2-3.6-3.8.1-10 .1-19.9 0-29.9 0-2.1.1-4.4-.7-6.1-.9-1.9-2.6-3.9-4.4-4.6-2.6-1.1-5.2.3-6.4 2.8-1.1 2.5-2.1 5.3-2.1 7.9-.3 9.6-.2 19.2-.2 28.9 0 4.5-.4 4.9-4.7 4.9-11.5 0-9.6 1-9.7-9.5-.1-14.3-.1-28.5-.1-42.8 0-4.1.3-4.6 4.6-4.5 2.8 0 6.2-.6 8 .8 1.4 1.1.9 4.7 1.4 8z" fill="#9e9e9e" data-color="1"></path><path d="M373 236.1c.1 6.1-1.1 12-4.1 17.4-4.5 7.9-11.2 12.2-20.5 11.9-9.2-.3-15.6-5.1-19.1-13.3-4.6-10.6-4.7-21.5-.2-32.1 3.7-8.6 10.5-13.4 20.1-13.5 9.4 0 16.4 4.3 20.1 12.8 2.2 5.2 3.1 11 4.6 16.5l-.9.3zm-32.2.2c.9 4.3 1.5 9.3 3.1 14.1.6 1.7 3.4 3.5 5.2 3.6 2 0 4.2-1.7 6-3.2.9-.8 1.3-2.4 1.6-3.8 1.4-7.9 1.5-15.9-.4-23.8-.8-3.4-2.7-5.6-6.3-5.9-3.4-.2-6.1 1.5-7.1 5.4-1.1 4.2-1.4 8.5-2.1 13.6z" fill="#9e9e9e" data-color="1"></path><path d="M136.7 270.2c1.2.5 2.5.9 3.6 1.5 19 10.9 39.6 17.6 61.2 20.6 30.4 4.3 59.9.8 88.4-10.6 1.1-.4 2.2-1.1 3.3-1.2 1.2-.1 2.4.5 3.6.7-.5 1.2-.6 2.9-1.5 3.5-4.9 3.1-9.7 6.3-15 8.8-19.9 9.3-40.9 13.8-62.8 12.5-30.1-1.7-56.9-12.2-79.6-32.3-.8-.7-1.3-1.8-1.9-2.7.3-.3.5-.6.7-.8z" fill="#9e9e9e" data-color="1"></path><path d="M300.7 244.8c5.4 1.2 10.5 2.3 15.5 3.5 3.8.9 5.2 3.5 5.1 7.5-.2 7.5 0 7.5-7 5-10.1-3.6-20-3.3-29.8 1-3.6 1.6-4 1.1-4.3-2.7-.6-6.2.9-11.4 4.9-16.4 5-6.3 9.4-13.2 14-19.9.8-1.1 1.5-2.2 2.7-4-5.8 0-10.8-.1-15.9 0-2.7.1-3.7-.8-3.7-3.6.2-9-.9-7.8 7.7-7.8 8.8-.1 17.6.1 26.4-.1 2.9 0 3.8 1 3.9 3.8.2 3.9-.8 7.1-3.2 10.3-5 6.8-9.8 13.8-14.6 20.7-.7 1-1.3 2-1.7 2.7z" fill="#9e9e9e" data-color="1"></path><path d="M299.6 299.1c2-6.7 3.9-12.6 5.5-18.6 1.2-4.6-.2-6.8-4.9-7.1-4.9-.3-9.9.2-14.9.4-1.5.1-2.9.2-4.4.4-.2-.4-.4-.8-.6-1.1 2.5-1.4 4.8-3.1 7.4-4 6.6-2.1 13.3-2.8 20.2-1.5 4.4.8 5.2 1.5 4.9 5.9-.5 8.9-3.8 16.8-9.9 23.5-.7.7-1.8 1.1-3.3 2.1z" fill="#9e9e9e" data-color="1"></path></g></svg>