<svg xmlns="http://www.w3.org/2000/svg" preserveAspectRatio="xMidYMid meet" data-bbox="56 227.1 400 57.9" viewBox="56 227.1 400 57.9" data-type="color" aria-hidden="true"><g><path d="M146 234.4c-2.4-2.5-5.3-4.3-8.5-5.5-3.3-1.2-6.7-1.8-10.3-1.8s-7.1.6-10.3 1.8c-3.3 1.2-6.1 3.1-8.6 5.5-2.5 2.5-4.4 5.5-5.9 9.1-1.4 3.6-2.2 7.8-2.2 12.5s.7 8.9 2.2 12.6c1.4 3.6 3.4 6.7 5.8 9.1 2.4 2.4 5.3 4.3 8.6 5.5 3.3 1.2 6.8 1.8 10.4 1.8 3.7 0 7.1-.6 10.4-1.8 3.3-1.2 6.1-3 8.5-5.5 2.4-2.4 4.3-5.5 5.8-9.1 1.4-3.6 2.1-7.8 2.1-12.6 0-4.7-.7-8.9-2.2-12.5-1.4-3.6-3.3-6.6-5.8-9.1zm-3.7 29.9c-.7 2.5-1.8 4.6-3.2 6.3-1.4 1.7-3.1 3.1-5.2 4-2 1-4.3 1.4-6.8 1.4-2.6 0-4.9-.5-6.9-1.4-2-1-3.7-2.3-5.2-4-1.4-1.7-2.5-3.8-3.2-6.3-.7-2.5-1.1-5.2-1.1-8.3 0-3 .4-5.8 1.1-8.2.7-2.5 1.8-4.6 3.2-6.3 1.4-1.8 3.1-3.1 5.2-4.1 2-1 4.3-1.4 6.9-1.4 2.5 0 4.8.5 6.8 1.4 2 1 3.7 2.3 5.2 4 1.4 1.7 2.5 3.8 3.2 6.3.7 2.5 1.1 5.2 1.1 8.3 0 3-.3 5.8-1.1 8.3z" fill="#9d9d9d" data-color="1"></path><path d="M92.2 271.1c-1.3-2.1-2.6-4-3.9-5.7-1.3-1.8-2.4-3.3-3.4-4.5 7.4-2.7 11.1-7.8 11.1-15.3 0-6-2.1-10.5-6.4-13.4-4.2-2.9-10.4-4.4-18.4-4.4-2.2 0-4.7.1-7.4.3-2.8.2-5.4.5-7.8 1.1v54.6h10.1v-21h6.4c.5 0 1.2 0 1.9-.1 1 1.3 2.1 2.7 3.3 4.4 1.2 1.6 2.4 3.4 3.6 5.2 1.2 1.8 2.4 3.7 3.6 5.7 1.2 1.9 2.3 3.9 3.3 5.8h11.3c-1-2.1-2.1-4.2-3.3-6.4-1.3-2.2-2.6-4.3-4-6.3zM84.5 250c-.6 1.2-1.6 2.1-2.8 2.8-1.3.7-2.8 1.2-4.7 1.4-1.9.3-4 .4-6.5.4h-4.4v-17.9c1.8-.2 3.8-.2 5.9-.2 2 0 3.8.1 5.4.4 1.7.3 3.1.8 4.3 1.5 1.2.7 2.1 1.6 2.8 2.8.6 1.2 1 2.6 1 4.3-.1 1.8-.4 3.3-1 4.5z" fill="#9d9d9d" data-color="1"></path><path fill="#9d9d9d" d="M216.5 252.4h-30.1v-24.1H181v55.5h5.4v-26.7h30.1v26.7h5.4v-55.5h-5.4v24.1z" data-color="1"></path><path fill="#9d9d9d" d="M171.1 228.3v55.4H161v-55.4h10.1z" data-color="1"></path><path d="M452.5 277c-1.4-2.3-2.8-4.6-4.2-6.8-1.4-2.2-2.8-4.1-4.2-6-1.4-1.8-2.5-3.3-3.3-4.3 3.6-1.1 6.5-2.8 8.6-5.2 2.2-2.4 3.3-5.7 3.3-9.8 0-5.6-1.9-9.9-5.8-12.8-3.9-2.9-9.6-4.3-17.2-4.3-2.2 0-4.6.1-7.2.4-2.6.2-4.8.6-6.8 1.2v54.4h5.4v-22.4h9c1.7 0 3.4-.1 5.1-.2 1 1.3 2.1 2.8 3.4 4.5 1.3 1.7 2.6 3.6 4 5.6 1.4 2 2.7 4.1 4 6.2 1.3 2.1 2.5 4.3 3.6 6.4h5.8c-1-2.3-2.1-4.5-3.5-6.9zm-16.7-20.6c-2.2.2-4.6.4-7.1.4h-7.5v-23.6c1-.1 2.3-.2 3.8-.4 1.5-.1 3.3-.2 5.3-.2 2.1 0 4.2.2 6.2.5s3.8 1 5.3 1.9c1.5.9 2.8 2.2 3.8 3.8 1 1.6 1.4 3.6 1.4 6.1 0 2.7-.5 4.8-1.4 6.3-1 1.5-2.3 2.7-3.9 3.6-1.8.8-3.7 1.3-5.9 1.6z" fill="#9d9d9d" data-color="1"></path><path fill="#9d9d9d" d="M380.7 257h23.7v-4.7h-23.7V233h26.6v-4.7h-32v55.5h34.1V279h-28.7v-22z" data-color="1"></path><path d="M319.7 273.4c-1.7-2.9-3.8-6.4-6.4-10.3-2.6-3.9-5.4-8-8.4-12.1s-6-8.2-9.1-12.2c-3.1-4-6-7.5-8.8-10.5h-4.3v55.4h5.4V237c1.5 1.8 3.3 4 5.2 6.5 2 2.5 4 5.2 6 8 2 2.9 4.1 5.8 6.2 8.8 2.1 3 4.1 6 5.9 8.8 1.9 2.8 3.6 5.5 5.2 8s2.8 4.7 3.9 6.6h4.6v-55.4h-5.4v45.1z" fill="#9d9d9d" data-color="1"></path><path fill="#9d9d9d" d="M329.7 233h17.7v50.8h5.5V233h17.7v-4.7h-40.9v4.7z" data-color="1"></path><path d="M267.1 262.5c0 3-.4 5.7-1.1 7.9-.7 2.2-1.7 4-3 5.5-1.3 1.4-2.8 2.5-4.6 3.2-1.8.7-3.8 1-6.1 1-2.2 0-4.3-.3-6.1-1-1.8-.7-3.4-1.8-4.6-3.2-1.3-1.4-2.3-3.3-3-5.5-.7-2.2-1.1-4.8-1.1-7.9v-34.2h-5.4v34.9c0 3 .4 5.9 1.1 8.5.7 2.6 1.9 4.9 3.5 6.9s3.7 3.5 6.3 4.6c2.6 1.1 5.7 1.7 9.4 1.7s6.8-.6 9.4-1.7c2.6-1.1 4.7-2.7 6.3-4.6 1.6-2 2.8-4.3 3.5-6.9.7-2.6 1.1-5.5 1.1-8.5v-34.9h-5.4l-.2 34.2z" fill="#9d9d9d" data-color="1"></path></g></svg>