<svg xmlns="http://www.w3.org/2000/svg" preserveAspectRatio="xMidYMid meet" data-bbox="9.8 40 800.2 381" viewBox="9.8 40 800.2 381" height="430" width="820" data-type="shape" aria-hidden="true" aria-labelledby="svgcid-3um82o3dq8jc"><title id="svgcid-3um82o3dq8jc"></title><g><path d="M307 230.5V40h7v381h-7V230.5z"></path><path d="M113.2 364.5c-22.8-13.4-50.5-39-66.2-60.9-16.2-22.8-28.2-50.6-33.7-78.3-2.5-12.6-2.6-13.6-3-69.1L9.8 100l112.9.2 112.8.3.3 41.5c.3 46.9-.7 67.8-4.4 86-10.4 51.8-42.4 98.3-89.7 130.4-5.4 3.6-11.9 7.7-14.6 9l-4.9 2.5-9-5.4zm11.7.2c1.4-1.7.4-2.7-2.5-2.7-3 0-3.9 1.6-1.7 2.9 2.4 1.4 2.9 1.3 4.2-.2zm-8.1-9c-.4-2.9-3.4-4.5-5.5-3.1-2.7 1.7-2.8 5-.2 6.8 2.1 1.4 2.4 1.4 4.1-.1 1.1-.9 1.8-2.6 1.6-3.6zm18.6 2.4c1.4-1.5 1.5-2.4.6-4-1.5-3-5.7-2.8-7.2.4-2.1 4.7 3.1 7.5 6.6 3.6zm-9-4.3c1.5-2.4-.3-5.2-3.7-5.6-3.3-.4-5.3 2.8-3.7 5.9 1.4 2.5 5.8 2.3 7.4-.3zm-19.9-13c-1.5-2.3-4.7-6.2-7-8.7-2.3-2.6-5-6.2-6-8.1-1.8-3.6-11.3-16-12.2-16-.7 0 3.3 6.5 10.1 16.2 3.4 4.8 8.3 11.9 11 15.8 3.3 4.6 5.3 6.7 5.9 6.1.7-.7.1-2.5-1.8-5.3zm40.4-6.3c3.4-4.9 8.7-12.7 11.8-17.3 3.1-4.5 5.4-8.4 5.2-8.7-.7-.6-10 11.4-12 15.4-1 2-3.2 5-4.9 6.6-4.5 4.2-11.2 14.3-10.4 15.6.9 1.5 3.1-.9 10.3-11.6zm-71.3-10c2-1.4 4.5-2.5 5.5-2.5 1.1 0 1.9-.1 1.9-.3 0-.2-1.1-4.1-2.5-8.7s-2.3-8.5-2.1-8.7c.2-.3 3.6 1.7 7.5 4.2l7 4.7 3.4-3.6c2.4-2.5 4.3-3.6 6.4-3.6 1.6 0 3.3-.4 3.9-.9 1.4-1.5 12.2-2.9 19.2-2.6 12.1.6 20.9 3.6 23.8 8 .9 1.4 2 2.5 2.6 2.5.5 0 3.9-2 7.5-4.5s6.8-4.4 7-4.1c.2.2-.6 4-1.8 8.5-1.2 4.5-2 8.2-1.8 8.4.2.1 2.7 1.4 5.5 2.8l5.2 2.7 5-5.2c6.5-6.7 16.3-18.8 15.7-19.4-.2-.3-1.6.3-2.9 1.2-1.4.9-2.8 1.6-3.1 1.6-.4 0 7.1-15.1 16.5-33.6s17-33.7 16.8-33.9c-.2-.3-12 10-26.2 22.8s-26.9 24-28.2 25l-2.4 1.9v-6.5c0-11.6 2-21.9 7.6-38.3 5.5-16.3 6.9-25.6 4.4-29.4-.8-1.2-1-1-1 1 0 4.7-4.7 12.5-14 23.5-5 6.1-10.7 13.3-12.5 16-3.3 5.2-9.7 18.1-11 22.3-.4 1.3-.9 2.2-1.1 1.9-.3-.2-3.6-17.2-7.4-37.7-3.8-20.5-7.1-37.4-7.3-37.6-.2-.2-1.5 6.3-3 14.4-8.9 48.6-11.1 59.8-11.7 60.5-.8 1-12.1-16.2-15.5-23.7-1.4-3.3-4.4-11.3-6.5-17.8-4.1-12.8-7.2-18.9-11.6-22.8-2.4-2.2-2.6-2.2-1.9-.5 3.1 7.8 3.6 12.3 2.9 29-.7 17.2 0 24.8 3.2 37.8.8 3.3 1.4 6.3 1.2 6.7-.2.5-12.2-9.9-26.8-23.1-14.6-13.2-27.3-24.4-28.4-25-1.1-.7 4.7 11.7 15.3 32.4 9.4 18.5 17.1 33.9 17.1 34.2 0 .4-1.2.4-2.6.1l-2.6-.7 2 2.8c2.5 3.6 17.1 20.3 17.7 20.3.2 0 2.1-1.1 4.1-2.5zM229 222.4c0-.6-5.9-4.6-13-9-15.9-9.6-18-10.7-18.7-10-1.8 1.8 2.8 5.8 15.7 13.7 13.9 8.4 15.9 9.1 16 5.3zm-197.3-5.5c12-7.4 16.3-10.8 16.3-13.1 0-1.7-2.6-.6-9.9 3.9-4.2 2.5-10.8 6.6-14.7 9-5.8 3.5-7.1 4.8-6.7 6.3.3 1.1.8 2 1 2 .3 0 6.6-3.7 14-8.1zM231 204.6c0-2-1.7-3.4-9.2-7.9-14-8.2-13.4-8-17.5-6.6-3.4 1.1-3.5 1.3-1.8 2.5 1 .8 2.8 1.4 3.9 1.4 1.2 0 6.8 2.9 12.6 6.4 5.8 3.6 10.8 6.5 11.3 6.5.4.1.7-1 .7-2.3zm-205.3-4.5c5.4-3.2 11.5-6.1 13.6-6.5 4.3-.8 4.8-2.2 1.1-3.6-3.6-1.4-5.6-.7-16.4 5.9-6.7 4-9.6 6.4-9.8 7.9-.2 1.2.1 2.2.7 2.2s5.4-2.6 10.8-5.9zm32.6-3.7c15.7-5.9 17.7-6.9 17.7-8.9 0-4.9-1.8-4.7-20 2.2-9.6 3.6-18.1 7.1-18.8 7.8-1.1 1-1.1 1.7-.3 3.4.7 1.1 1.7 2.1 2.4 2.1s9.2-3 19-6.6zm149.3 4.1c.4-1.4.4-2.8.1-3.1-.5-.5-36.6-14.4-37.4-14.4-1 0-2.3 5.4-1.4 6.3 1.4 1.4 33.2 13.5 35.8 13.6 1.6.1 2.4-.6 2.9-2.4zm-116.9-5.4c9.4-1.6 17.6-3.2 18.2-3.5.6-.4 1.6-1.6 2.2-2.8 1.3-2.4 3.7-2.6-23.3 2-9.7 1.6-18.2 3.3-18.9 3.7-.8.6-.4 1.2 1.2 2.1 3 1.7.6 1.8 20.6-1.5zm83.8 1.6c2.8-2.1 1-2.7-18.4-6-9.7-1.6-18.8-3.1-20.3-3.4-3.3-.6-3.6.7-.8 3.2 1.5 1.3 6.8 2.7 17.8 4.6 18.8 3.2 19.3 3.3 21.7 1.6zm-31.7-15-.3-3.2-19.6-.3c-16.7-.2-19.8 0-20.9 1.3-.9 1.1-1 2.2-.3 3.8 1 2.2 1.2 2.2 21.2 1.9l20.2-.3-.3-3.2zm-73.1.4c5.3-2.7 29.4-6.4 36.2-5.6 6 .8 6.5-.4 1.8-3.9l-2.7-2-17.3 2.7c-17.8 2.8-21.2 4.1-22.8 8.5-1 2.7-.1 2.8 4.8.3zm110.3.5c0-.7-1.1-2.5-2.5-3.8-2.2-2.2-4.7-2.9-20.1-5.3-15.7-2.5-18-2.7-20.2-1.4-4.7 2.6-3.9 3.9 2.5 3.9 7.8 0 32.1 4.3 35.8 6.4 3.7 1.9 4.5 2 4.5.2zm34.8-15.6 5.1-11.1 6.1 3.1 6 3-.2-29c-.2-15.9-.6-29-1-29H14v28.5c0 15.7.2 28.5.5 28.5s2.8-1.1 5.5-2.5c2.6-1.3 9.4-4.3 15.1-6.6 8-3.2 10.3-3.8 11-2.8.4.8 2.4 6 4.5 11.6 2 5.7 3.9 10.3 4.4 10.3.4 0 3.2-.9 6.2-1.9 8.2-2.8 23-6 34.3-7.5 9.7-1.2 10-1.3 9.9-3.7-.1-1.3-.5-7-.9-12.6l-.7-10.3h18.4c15.7 0 39.1 2 40.5 3.4.2.2-.5 5.6-1.6 12-1.2 6.3-2.1 11.7-2.1 12 0 .2 2.6 1 5.8 1.6 8.5 1.7 28.5 7.8 36.1 11.1 3.6 1.5 7.1 2.8 7.7 2.9.5 0 3.3-5 6.2-11z"></path><path d="M538.5 365.5c-8.5-3-11.5-10.5-11.1-27.5.4-16.6 3.3-21.6 14.3-24.1 2.8-.6 7.7-.8 11.6-.4 6.4.7 6.7.8 6.7 3.4v2.6h-8.9c-14.3 0-16.9 3.3-17 21-.1 16.6 3.8 21 18.2 20.2l7.7-.4v2.7c0 2.4-.5 2.8-3.7 3.4-6.2 1-13.5.6-17.8-.9z"></path><path d="M659.8 366.3c-3.4-.4-3.8-.7-3.8-3.1v-2.7l10 .3c9.5.4 10 .3 12.5-2.2 2.9-2.9 3.3-7.1.9-10.5-.9-1.2-5.9-4.3-11-6.8-11.1-5.3-13.6-8.1-13.6-15.2 0-2.6.5-5.8 1.1-6.9 2.4-4.6 11.2-6.9 21.8-5.7 6.2.6 6.4.8 6.1 3.3-.3 2.7-.3 2.7-7.8 2.4-8.7-.4-12.6.8-14.2 4.2-1.9 4.2.5 8.1 6.6 10.8 16.7 7.4 19.1 9.8 19.1 18.8-.1 5.2-.5 6.3-3 9-4.4 4.6-10.9 5.7-24.7 4.3z"></path><path d="m380.2 340.3.3-25.8h8.6l6.6 14.3c3.7 7.8 7 13.9 7.4 13.5.4-.5 3.4-6.4 6.6-13.3 3.2-6.9 6.2-13.1 6.6-13.7.5-.7 2.6-1.3 4.8-1.3h3.9v52h-6l-.2-20.7-.3-20.8-5.7 12c-7.5 15.6-7.1 15-10.3 15-2.5 0-3.1-1-8.8-13.4l-6.2-13.3-.3 20.6-.2 20.6h-7l.2-25.7z"></path><path d="M437.6 349.8c3-9 6.8-20.7 8.5-26.1l3-9.8 4.7.3 4.7.3 8.2 25c4.6 13.8 8.3 25.3 8.3 25.8 0 .4-1.6.7-3.5.7h-3.4l-2.6-8.5-2.6-8.6-9.2.3-9.2.3-2.9 8.3c-2.8 8-2.9 8.2-6.1 8.2h-3.4l5.5-16.2zm22.4-7.9c0-.6-1.4-5.6-3.2-11.1l-3.1-10.1-3.4 10.4c-1.8 5.7-3.3 10.7-3.3 11.2 0 .4 2.9.7 6.5.7 4.1 0 6.5-.4 6.5-1.1z"></path><path d="m481.2 340.3.3-25.8 4.5-.3 4.5-.3 10.8 21.6c6 11.8 10.9 21.5 11 21.5.1 0 .2-9.6.2-21.2v-21.3h6l.3 25.8.2 25.7h-9.6l-10.5-21.5c-5.7-11.8-10.6-21.5-10.9-21.5-.3 0-.3 8.6-.1 19 .4 22.6.2 24-3.9 24h-3l.2-25.7z"></path><path d="M568 340v-26h5.9l.3 10.7.3 10.7 12.5-.1 12.5-.1.3-10.6.3-10.7 3.2.3 3.2.3v51l-3.2.3-3.3.3V342h-26v24h-6v-26z"></path><path d="M617 340v-26.1l15.3.3 15.2.3v5l-11.7.3-11.6.3-.4 7.5c-.2 4.2-.1 7.8.1 8 .2.2 5.3.4 11.3.4H646v6h-21.8l-.4 8.3c-.2 4.5-.2 8.5 0 9 .2.4 5.7.7 12.3.7H648v6h-31v-26z"></path><path d="m705.8 343.3-.3-22.8-7.7-.3-7.8-.3V314h38v6h-16v46h-6l-.2-22.7z"></path><path d="m734.2 340.3.3-25.8h30v5l-11.7.3-11.8.3V336h22v6h-10.8c-6 0-11.1.2-11.3.4-.2.2-.3 4.3-.1 9l.3 8.6H765v6h-31l.2-25.7z"></path><path d="m773.2 340.3.3-25.8H785c13 0 16.7 1.3 20 6.8 4.1 6.7 1.8 18.6-4.2 21.8-1.3.6-2.4 1.3-2.6 1.4-.2.2 2.4 4.8 5.7 10.3 3.4 5.5 6.1 10.3 6.1 10.6 0 .3-1.7.6-3.7.6-3.7 0-3.9-.2-9.7-10l-5.8-10H780v20h-7l.2-25.7zm24.3-3.3c1.9-1.8 2.5-3.4 2.5-6.7 0-2.5-.4-5.3-1-6.3-1.3-2.5-6.2-4-13.1-4H780v20.3l7.5-.5c6.1-.4 8-.9 10-2.8z"></path><path d="M392.2 288.5c-8.8-2.5-10.8-3.9-11.6-8.2-.8-5.4-.7-9.1.3-9.7.5-.3 4 .6 7.7 2.1 13.5 5.1 31.3 3.2 35-3.8 2.9-5.8 1-12.9-4.6-16.9-1.6-1.1-8.4-4.8-14.9-8.1-14.4-7.2-20.3-12.4-22.6-20.1-1.9-6.5-1.9-10.1 0-16.4 3-10.1 11.8-15.7 28.1-17.5 8.3-1 11.2-.9 18 .4 4.4.8 9.7 2.2 11.8 3.1l3.7 1.6-.6 5.7c-.4 3.2-1 6.1-1.4 6.5-.3.4-3.7-.2-7.6-1.3-11.9-3.4-24.8-2.5-28.9 2-.9 1-1.9 3.4-2.2 5.3-.9 5.5 2.7 8.8 18.4 16.5 20.8 10.1 26.2 16.5 26.2 31 0 12.1-4.9 20.2-15.6 25.4-6.3 3.1-7.2 3.3-20.2 3.6-9.9.2-15.2-.1-19-1.2z"></path><path d="M472.7 288.6c-7-1.9-12.7-6.3-15.6-12.1-2.3-4.3-2.6-6.2-2.6-14.5 0-7.9.4-10.2 2.2-13.7 2.8-5.1 7.7-9 14-11 5.2-1.6 20-2 27.2-.8l4.4.7-.5-4.6c-.7-5.6-2.8-9-7.1-11.3-2.7-1.5-5.4-1.8-16.8-1.6-15.5.2-14.9.5-14.9-8.4v-4.2l5.8-.7c3.1-.4 11.8-.8 19.2-.8 13.5-.1 13.6-.1 20.5 3.4 8.4 4.2 12.5 9.6 14.3 18.5 1.6 7.8 1.6 58.1.1 59.1-4.6 2.8-41.7 4.3-50.2 2zM502 262v-13h-8.2c-13 0-17.8 3.4-17.8 12.8 0 9.8 4.4 13.1 17.3 13.2h8.7v-13z"></path><path d="M635.3 288.6c-6.9-2.2-13-6.4-16.8-11.3-11.2-14.7-10.6-46.5 1.2-60.2 12.5-14.6 41-15.8 55.4-2.4 9.1 8.5 13.3 24.5 11 42.1-1.9 15.4-8 24.5-20.1 30.1-4.6 2.1-7.2 2.6-16 2.8-6.9.2-12-.2-14.7-1.1zm21.2-13.8c6.2-2.8 9.1-13.9 8.2-31.1-.7-13-2-17.6-5.7-21.2-5.6-5.4-16.2-5.2-21.2.4-4.1 4.6-5.3 10.1-5.3 25.1 0 14.8 1.4 20.7 5.9 24.9 4.3 4.1 11.7 4.8 18.1 1.9z"></path><path d="M758.3 287.9c-8-2.5-14-7.1-18.1-13.9-4.6-7.7-5.4-11-5.9-23.8-.6-13.6.7-21.5 4.9-29.4 3.3-6.2 7.2-9.7 14.6-13.1 4.2-2 6.2-2.2 18.5-2.1l13.7.2v-13.4c0-15.4-1.3-13.9 12.8-14.9l8.2-.5v109.9l-3.2.5c-1.8.3-6 1-9.2 1.6-10.2 1.7-29.2 1.2-36.3-1.1zm26.5-14.1c.9-.9 1.2-8 1.2-25.9 0-13.6-.3-25.4-.6-26.3-.5-1.3-2.3-1.6-8.9-1.6-9.7 0-13.5 1.9-17.4 8.9-2 3.6-2.5 6.2-2.9 15.5-.5 12.1.4 17.3 4.1 22.7 4 5.9 8 7.9 16.1 7.9 4.3 0 7.7-.5 8.4-1.2z"></path><path d="M536 234.1c0-30.3.3-55.2.8-55.4.4-.2 5.1-.8 10.5-1.1l9.7-.7V289h-21v-54.9z"></path><path d="M576.5 287.8c-.3-.7-.6-16.4-.7-34.8l-.3-33.5h-10l-.3-6.2-.3-6.3h11l1.1-5.7c.7-3.2 2.3-7.9 3.5-10.4 4.3-8.4 14.7-15.7 23.2-16.2 3.6-.2 3.9 0 6.3 4.6l2.5 4.9-2.5 1.6c-5.3 3.4-10.7 9.9-11.9 14.5-.7 2.5-1 5-.6 5.6.3.6 3.3 1.1 6.6 1.1h6l-.3 6.3-.3 6.2-6 .5-6 .5-.3 34.3-.2 34.2h-10c-7.1 0-10.2-.4-10.5-1.2z"></path><path d="M694.5 287.8c-.3-.7-.4-18.6-.3-39.8l.3-38.5 9.5-1.2c5.2-.6 14-1.3 19.5-1.5l10-.3.3 6.2c.3 7.2.5 7.1-10.8 7.5l-6.5.3-.5 34-.5 34-10.3.3c-7.6.2-10.4-.1-10.7-1z"></path><path d="M695.4 175.8c4.3-5.8 7.6-11.3 7.6-12.5 0-.7-.8-1.7-1.8-2.2-1.2-.6-2.7-3.9-4.1-8.8-1.3-4.3-4.3-14.4-6.7-22.5-2.4-8-4.4-15.1-4.4-15.7 0-.6 1.8-1.1 4.3-1.1h4.2l4.4 15.8c7.3 25.6 7.3 25.6 8.1 24.1.4-.8 2.9-10.1 5.5-20.6l4.7-19.3h3.9c2.2 0 3.9.5 3.9 1.1 0 .6-2.5 10.9-5.6 22.8-5.7 21.8-9.3 31.7-14 37.8-2.2 2.9-3.1 3.3-7.1 3.3-4.5 0-4.5 0-2.9-2.2z"></path><path d="M399.5 162.5c-.5-.2-2.7-.6-4.8-1-4.8-.8-11.1-6.4-12.9-11.3-.9-2.6-1.3-10.1-1.3-25.2v-21.5h8l.5 22c.6 25.1 1 26.5 8 28.6 5.6 1.7 11.4-.1 14-4.4 1.8-2.9 2-5.2 2-23.7 0-11.3.4-21.1.9-21.8.5-.8 2.2-1.2 4.2-1l3.4.3.3 19c.1 11.2-.2 21.2-.9 24.3-1.3 6.3-6.3 12.6-11.2 14.1-4.1 1.2-8.9 1.9-10.2 1.6z"></path><path d="M754.5 162.1c-15.3-3.8-21.9-22.2-13.9-38.9 3.6-7.5 9.3-10.7 18.9-10.7 9.1 0 14.6 2.9 19 9.9 2.8 4.6 3 5.6 3 14.5 0 10.3-1.6 15.2-6.7 19.7-5.1 4.7-13.9 7-20.3 5.5zm12.6-9.4c4.9-3.3 6.4-6.9 6.3-15.7-.1-11.4-3.6-16.5-12.2-17.7-5.9-.8-11 2-13.4 7.4-2.4 5.3-2.6 15.5-.4 20.7 3 7.2 12.9 9.9 19.7 5.3z"></path><path d="M429.7 161.4c-.9-1-.9-44.6.1-46.1.4-.7 4.8-1.7 9.8-2.4 15.8-2 24.9 1.4 27.3 10.3.8 2.8 1.1 10.4.9 21.3l-.3 17-3.7.3-3.8.3v-16.6c0-23.7-1-25.5-14.4-25.5H438l-.2 20.8-.3 20.7-3.5.3c-2 .2-3.9 0-4.3-.4z"></path><path d="M477 138.6v-24.3c0-.5 1.8-.9 4-1.1l4-.3-.2 24.3-.3 24.3-3.7.3-3.8.3v-23.5z"></path><path d="M504.7 161.3c-.3-.4-3.3-10.2-6.6-21.8-3.4-11.6-6.6-22.3-7.1-23.8l-.9-2.8 4.6.3 4.6.3 4.3 17c2.5 9.4 4.7 18.2 5 19.8 1.3 5.5 1.3 5.5 10.4-29l2.2-8.3h4c4.8 0 5.1-2.5-3.6 27l-6.4 21.5-5 .3c-2.8.2-5.2-.1-5.5-.5z"></path><path d="M542 160.9c-6.7-2.7-10.9-10.1-11.7-20.4-1.2-16.2 4.8-25.9 17.5-28 6.3-1 13.4 1 17.6 5.1 3.9 3.8 5.5 8 6.3 17.2l.6 6.2H539v3.1c0 7.7 6.6 11.3 19.9 10.7 7.1-.3 7.6-.1 7.9 1.8.6 4.3-2.1 5.4-12.6 5.3-5.3 0-10.8-.5-12.2-1zm21.4-27.7c1-1.6-1.6-8.4-4-10.7-4.7-4.4-14.8-3.9-17.9.9-1.9 2.9-3.6 8.6-2.9 9.7.7 1.2 24.1 1.2 24.8.1z"></path><path d="M578 138.2v-23.9l8.7-1.2c4.9-.6 9.1-.7 9.6-.2.5.5.7 2.1.5 3.7-.3 2.7-.6 2.9-5.5 3.2l-5.3.3-.2 20.7-.3 20.7-3.7.3-3.8.3v-23.9z"></path><path d="M604.3 160.9c-3.4-1-4.8-3.6-3.8-6.8.6-1.9.8-1.9 5.1-.4 2.8 1 6.6 1.4 10 1.1 12.6-1.1 12.4-10.6-.4-15.3-11.1-4.1-16-9.8-14.6-17.1 1.3-7 10-11.1 21.3-10 7.4.6 9.2 1.9 8.4 5.8-.5 2.5-.8 2.7-3.2 2-1.4-.4-5.5-.7-8.9-.7-5.5 0-6.7.3-8.2 2.3-3.2 3.9-1.1 6.3 9.8 11.4 10.7 5.1 13.2 7.8 13.2 14.3 0 5.8-2.7 10.5-7.4 12.6-4.5 2-15.6 2.4-21.3.8z"></path><path d="M640.7 161.4c-.4-.4-.7-11.5-.7-24.6V113h8l-.2 24.3-.3 24.2-3 .3c-1.7.2-3.4 0-3.8-.4z"></path><path d="M665.3 160.5c-3.4-2.4-4.3-7.6-4.3-25.2V119h-2.4c-1.3 0-2.9-.7-3.6-1.5-1.9-2.3-.4-4.5 3-4.5h3v-6.5c0-6 .2-6.5 2.4-7.1 5.2-1.3 6.1-.4 6.6 6.6l.5 6.5 4.5.5c2.5.3 4.4 1 4.3 1.5-.8 4.2-1.2 4.5-5.2 4.5H670v16.3c0 11.3.4 16.7 1.2 17.5.7.7 3.1 1.2 5.5 1.2 4.2 0 4.3.1 4.3 3.4 0 2.2-.6 3.6-1.6 4-3.1 1.2-12 .6-14.1-.9z"></path><path d="M789.6 160.5c-.3-.9-.6-10.6-.6-21.5v-19.9l-2.7-.3c-2.2-.2-2.9-.9-3.1-3-.3-2.5 0-2.8 2.8-2.8 2.1 0 3.2-.6 3.6-1.7 1.6-5.8 5.3-10.9 9.5-13 5.4-2.7 6.6-2.8 7.4-.5.4 1.4-.8 3.2-4.1 6.5-5.7 5.8-5.6 8.1.4 8.5 4 .3 4.3.5 4 3-.3 2.4-.8 2.7-4.5 3l-4.3.3-.2 21.2-.3 21.2-3.6.3c-2.6.2-3.8-.1-4.3-1.3z"></path><path d="M476.8 103c-.2-2.3-.2-4.3.1-4.6.2-.2 2.2-.4 4.3-.4h3.9l-.3 4.3c-.3 4.1-.4 4.2-3.9 4.5-3.6.3-3.7.3-4.1-3.8z"></path><path d="M640.7 106.3c-.4-.3-.7-2.4-.7-4.5 0-3.8 0-3.8 4-3.8h4v4.5c0 4.4 0 4.5-3.3 4.5-1.9 0-3.7-.3-4-.7z"></path></g></svg>