<svg xmlns:inkscape="http://www.inkscape.org/namespaces/inkscape" xmlns:sodipodi="http://sodipodi.sourceforge.net/DTD/sodipodi-0.dtd" xmlns="http://www.w3.org/2000/svg" xmlns:svg="http://www.w3.org/2000/svg" preserveAspectRatio="xMidYMid meet" data-bbox="0.762 0.9 1198.566 520.216" viewBox="0.762 0.9 1198.566 520.216" data-type="color" aria-hidden="true" aria-labelledby="svgcid-iiaz8i-aa0e0e" id="svg1280" sodipodi:docname="Home _ Paid Advertising Agency _ Web Design _ Expertcreativity.com-14.svg" inkscape:version="1.1.1 (3bf5ae0d25, 2021-09-20)"><defs id="defs1229"><style id="style1227">#comp-jtspqlt51 svg [data-color="1"] {fill: #101015;}
#comp-jtspqlt51 svg [data-color="2"] {fill: #FFFFFF;}</style></defs><title id="svgcid-iiaz8i-aa0e0e"></title><g id="g1278"><path d="M144 519.9c-29.2-3.5-60.1-21.4-88.6-51.3-48-50.3-64.5-103.1-49-156.7 7.6-26.4 23.4-51.9 46-74.5 13.5-13.5 21.1-18.2 34.1-20.9 26.7-5.6 57.6 6.6 97.4 38.5 6.3 5 11.1 8.4 10.8 7.6-4.2-10.9-5.6-45-2.4-57.8 6.5-26.1 21.3-46.3 46-62.5 18.6-12.3 32.3-18.2 52.2-22.5 14.4-3.2 40.2-3.1 52.9 0 13.2 3.3 21 7.4 28.9 15.3 3.7 3.7 6.9 6.4 7.1 6 .2-.3.9-2.4 1.6-4.6 2.1-6.6 9.1-19.5 15-27.5 12.4-16.6 28.9-28 46.1-31.6 11.3-2.4 26.1-1.5 36.6 2.4 17 6.3 32.6 19.4 40 33.7 5.4 10.5 7.2 17 8 28.3l.6 9.3 4.1 2.1c2.3 1.1 5.4 3 6.9 4 1.6 1.1 3 1.9 3.2 1.7.2-.2 1.1-3.3 2-6.9 3.8-14.8 13.5-31.1 24.4-41.3 8.2-7.6 13.5-11.1 24.4-16.2 19.3-9.1 44.1-12.5 61.2-8.4 18.2 4.5 35.1 16.7 44.3 32.2 3.1 5.1 7.1 15.8 8.7 23.2l.6 2.9 3.1-4.9c4.7-7.5 5.6-11.7 6.8-31.7 2.1-34.6 8-58.6 18.9-77.2C747.2 11.2 763.8 1 784.1.9 800.3.9 813 6 824 17c14.6 14.5 19.9 36.6 13.5 55.7-2.8 8.2-8.1 18-19 34.8-11.6 17.8-16.1 25.7-17.9 31.3-1 2.9-1.6 5.5-1.4 5.7.2.2 3.9-.1 8.3-.7 15-2 35.1 2.1 47.6 9.8 7.5 4.5 16 13.8 19.8 21.6 5.4 11 7.3 20.5 7.5 36.5 0 7.9.2 14.3.3 14.3.1 0 2.5-2.1 5.5-4.6 6.3-5.4 16.3-11.4 23.3-13.9 2.8-1 5.2-2 5.4-2.1.2-.2-.7-2.7-1.9-5.6-3.5-8-4-23.5-1.1-34.9 5.3-21.1 15.6-30.7 33.8-31.7 13.2-.7 25.7 4.1 36.9 14.1 7.5 6.8 10.7 13.4 10.8 22.1 0 8.7-2.9 18.6-8.1 27.6-5 8.6-16.3 19.8-23.4 23.2l-5.7 2.8.5 8.7c.3 4.9.6 8.9.7 9 .1.1 2.4-1.2 5.1-2.9 7.6-4.7 17.8-8.7 27.9-11 7.6-1.6 11.6-1.9 24.1-1.6 13.1.4 16 .8 23 3.2 19.6 6.7 34.6 21.1 41.2 39.6 2.2 6.1 2.8 9.7 3.1 19.5.5 15.2-.7 21.8-5.9 32.5-3.4 6.8-5.9 10.2-13.1 17.5l-8.9 8.9.6 5.8.7 5.9 3.9-4.5c8.4-9.5 22.6-18.3 36.9-22.8 6.6-2 9.4-2.3 23.5-2.2 14.7 0 16.7.2 24.5 2.8 39 12.8 60.6 43.9 51.1 73.7-5.1 16.2-21.2 32.4-34.2 34.5l-3.4.6.3 8.7c.5 14.5-4.4 28.6-14.7 42.3-9.7 12.8-26.6 23.5-43.5 27.8-17.6 4.4-41.1 1.8-57.7-6.5-40.7-20.4-52.3-57.5-27.4-87.7 5.7-7 14.6-13.1 21.5-14.9 5.4-1.4 5.9-2.4 4.4-9.7l-.6-3-4.2 2.9c-6 4.2-15.4 6.3-24.4 5.5-15.9-1.5-37.1-9-49.9-17.7-21.9-14.9-36.2-40.2-38.1-67.1l-.7-9.8-4.5 3.7c-6.5 5.2-17.7 10.2-25.4 11.4-14.2 2.2-33.6-4.9-44-16.2l-5.6-6-8.1 6c-30.5 23-73.8 27.4-108.7 11.1-22.4-10.5-36.6-26.5-45.3-51.2l-2.3-6.7-4.4 4.1c-8.9 8.2-21.4 11.5-38.6 10.4-36.3-2.5-67-19.3-82-45-2.1-3.6-4.1-6.6-4.4-6.6-.2 0-3.5 2.8-7.2 6.3-12.8 12.1-28.3 21-45.7 26.4-7.9 2.4-10.4 2.7-24.8 2.7l-16.1.1 2.3 7.9c4.4 15.2 2.8 31.8-4.7 46.6-11.6 23-43.6 47.9-75 58.4-19.6 6.5-29 8-51.5 8-17.1 0-21.3-.3-29.4-2.2-5.2-1.2-9.6-2.1-9.7-1.9-.2.1.1 2 .6 4.2 3.9 16.6-3.3 40.4-19.5 64.5-19.8 29.6-55.2 58.7-82.4 67.9-13.9 4.7-30.6 6.6-44.1 5zm950-20.5c19-4.4 35.7-18.3 42.6-35.4 3.7-9 3.7-16.1.2-22-2.6-4.5-6.7-8-18.8-16-14.7-9.8-17-13-17-24 0-6.4.4-8.1 2.5-11.3 1.4-2 4.9-5 7.8-6.7 4.4-2.5 6.2-3 12.4-3 6.7 0 7.4.2 10.3 3.1 3.3 3.4 6.3 8.7 10.4 18.9 3.3 8 7.1 13.7 10.5 15.5 2.2 1.1 3 1.1 6.2-.5 4.6-2.4 12.1-10.7 15.1-16.8 3.4-6.9 3.2-15-.7-22.2-6.3-11.6-20.1-22.2-36-27.6-6.7-2.3-9.7-2.8-18.5-2.8-11.8 0-20.4 2.4-30.7 8.6-17 10.1-30.1 32.5-26.4 45 2 6.8 5.4 10.2 17.3 17.7 12.7 7.8 15.8 10.7 18.7 17.1 7.1 15.6-3.3 32-20.2 32-7.7 0-12.5-3.6-16.5-12.3-1.1-2.3-3.7-7.9-5.8-12.5-2.4-5.3-5.1-9.5-7.6-11.8l-3.8-3.4-3.8 1.9c-8.5 4.3-16.9 16.3-17.9 25.5-1.7 15.1 16.6 34.2 39.7 41.5 11.2 3.5 19.9 3.9 30 1.5zM171 498c10-2.4 27.7-10.9 36.5-17.5 32.2-24.2 55.7-54.9 62.2-81 2.8-11.3.5-18.2-10.2-30.1-12.7-14.2-29.8-27.4-35.6-27.4-3.6 0-7.3 3.2-9.9 8.6-2.9 5.8-3.5 8.4-6.6 28.9-5.7 37.8-11.7 44.2-41.3 43.3-12.7-.3-12.8-.3-21.3-4.5-23.5-11.7-41.1-38.5-47.3-71.8-2.1-11.1-1.7-29.4.7-34 2.9-5.5 5.4-6.9 12.8-7.3 6.3-.4 7.1-.2 9.2 2.1 1.3 1.4 3.6 6 5.2 10.2 5 13.7 12.8 19.9 25.2 20 6.1 0 7.9-.5 14.5-3.7 4-2.1 9.5-5.5 12-7.8 8.9-7.6 15.6-21 14.2-28.3-2.1-10.6-8-17.6-26.8-31.7-15.7-11.8-21.7-15.6-33.2-21.4-23.9-11.9-39.4-11.9-55.4.1-12.6 9.5-31.8 34.3-41.4 53.2-24.1 48-15.8 95.3 25.3 145 24.3 29.2 54.1 50 79.7 55.6 9.1 2 21.7 1.8 31.5-.5zm7-96.8c4.8-2.4 6.4-7.3 10.1-30.8 1.6-10.6 3.8-21.8 4.9-25 1.2-3.5 1.5-5.3.7-4.6-17.3 13.6-28.2 17.8-44.7 16.9-11-.5-18.7-3-25.6-8.4-2.5-1.9-4.8-3.2-5.1-2.9-1 1 3.9 15.1 8.3 24.3 6.7 13.7 19.6 26.9 30.2 30.8 5.5 2 16.9 1.9 21.2-.3zm847.6-18.3c4.7-2.9 10.8-14.9 10.8-21.6.1-4.1-.4-5.6-2.3-7.7-2.4-2.6-2.7-2.6-17-2.6-12.1 0-15.3-.4-18.6-1.9-5.2-2.4-11.7-9.3-15-15.8-2.2-4.5-2.5-6.3-2.3-12.5l.3-7.3 6.7-.3c6.1-.3 7.9.2 22 5.7 15.5 6 25.7 9.1 29.9 9.1 5.8 0 14.4-8.3 19.6-18.8 3.2-6.4 3.7-8.5 4.1-16 .8-17.5-7.3-32.1-23.2-41.6-8.4-5-18.2-7-31.5-6.3-18.2.9-30.9 6.5-43.7 19.2-6.5 6.4-8.9 9.7-12.2 16.5-10.6 22.2-10.8 41.6-.5 63 8.5 17.6 25.8 31.6 47 38 14.1 4.3 20 4.5 25.9.9zM338.1 362c26.7-2.7 50.7-12 71.7-27.6 19.5-14.6 31.2-32.5 31.2-47.8 0-6.8-3-16.6-7.1-23.1-9-14.4-18.2-19.3-46.4-24.5-24.4-4.5-30.7-7.4-36.1-16.6-2.5-4.2-2.6-5.2-2.1-12.7.4-6.2 1.5-11 4.7-19.7 8.5-23.3 9.5-29.2 6-36-5.2-10.3-24.8-16.8-47.5-15.7-16.4.8-28.7 4-44 11.6-15.7 7.8-23.3 12.9-32.8 22-28.5 27.2-32 62.4-11.1 113.3 12.9 31.7 31.6 53.4 56.9 66.1 11.5 5.7 23.8 9.1 41 11.1 1.7.1 3.5.4 4.1.5.7 0 5.8-.4 11.5-.9zm457.2-56.4c25.7-7.6 41.4-22 56.2-51.5 5-9.9 8.5-24.1 9.2-37.1 1.3-24.5-8.3-41.7-27.2-48.6-9.2-3.3-17.3-3.9-27.6-2-11.1 2.1-16.4 2-21.6-.4-6.3-2.8-8.3-6.7-8.3-16.6 0-6.2.6-9.9 2.9-16.5 3.6-10.9 5.5-14.4 16.4-31.3 12.2-19.1 19.6-32 21.4-37.3 2-5.9 1.3-15.4-1.7-21.3-2.9-5.9-10.4-13.6-16-16.5-17-8.6-32.7-2.4-44.8 17.7-7.9 13.2-13.8 38.4-15.3 65.6-1.6 28.7-2.5 31.7-18 54.8-14.9 22.3-20.7 36.2-22.7 55-1.6 13.6.1 25.7 5.9 42 4.2 12 8.5 18.8 17.1 27 10.5 9.9 24.1 16.5 40.8 19.8 6.6 1.3 24.7-.3 33.3-2.8zm102.5-5.1c11.4-5.7 23.2-19.6 30.8-36.1 3.8-8.1 7.4-20.9 7.4-25.8-.1-4.9-3.4-11.3-7-13.1-2.9-1.5-3.5-1.5-8.1 0-15.6 5.2-41.9 31-52.6 51.8-1.8 3.4-3.3 7.5-3.3 9 0 7.2 7.4 14.2 17.7 16.6 6.3 1.5 7.7 1.2 15.1-2.4zm-244.1-45.7c2.3-.5 5.5-2.4 7.2-4 6.8-6.7 10-23.4 5.5-29.4-3.7-5.1-5-5.4-14.4-3.3-12.1 2.6-25.9 2.5-31.1-.2-5.8-2.9-12.6-9.5-16-15.4-2.3-4-2.9-6.2-2.9-11.2 0-5.4.3-6.4 2.2-7.4 3.2-1.7 14.1-.6 29.5 3 7.3 1.7 17.3 3.6 22.2 4.2 8.8 1.2 8.9 1.2 13.3-1.4 7.3-4.2 13.3-13.7 16.3-25.6 1.5-5.5 1.5-7 .1-14.8-3.6-21.1-16.9-36-37.1-41.8-7.1-2.1-22.3-1.6-32 1-8.6 2.3-23.1 9.6-29.4 14.8-36.8 30.7-32.7 90.5 8.2 118.6 10.4 7.1 26 12.5 40.4 14 8.2.8 11.2.6 18-1.1zm-164.2-16.5c20.8-5.3 48-25.5 51.1-38 .8-3.1-5.3-15.9-9.7-20.2-3.7-3.8-8.7-7.1-10.6-7.1-1.7 0-5.7 4.4-10.6 11.5-7.1 10.4-10.7 14.3-15.5 16.7-4.1 2-6.2 2.3-17.2 2.3-11.3 0-13-.2-17.5-2.5l-5-2.5-.3-6.2-.3-6.2 5.3-3.8c2.9-2.2 10.2-6.8 16.1-10.4 13.3-7.8 26.1-17.8 28.2-21.8 3-5.9 1-17.5-5-27.7-6.1-10.3-23.1-22.1-35.8-24.6-17-3.3-36.6 7.2-51 27.4-21.3 29.8-19 62.3 6.1 89 20.5 21.7 46.7 30.5 71.7 24.1zm-99.4-23.1c-2.9-4.2-8.6-16-10.6-22.1l-1.8-5.5-4.9 13.3c-2.6 7.4-4.6 13.7-4.2 14 .6.7 14.9 2.7 20.2 3l3.3.1-2-2.8zm564.5-17c8.8-6.5 18.4-20.3 18.4-26.7 0-5.3-14.7-15.6-22.7-15.8-6.7-.2-12.3 6.5-14.8 17.9-1.4 6.2-1.5 8.2-.5 12.5 1.3 5.5 4.7 10.1 9.5 13 4.1 2.5 5.5 2.4 10.1-.9z" fill="#000000" data-color="1" id="path1232"></path><path d="M444 450v-54h114v108H444v-54zm75.1 35.7c7.6-3.7 11.1-8.8 11.7-16.7.6-8-2.3-14.1-8.6-18.1-2.5-1.5-5-3-5.6-3.2-.6-.2.2-1.5 1.8-2.7 5.3-4.3 7.3-14.1 4.2-21.3-1.7-4.3-8.5-10.1-13.5-11.5-2.2-.7-10.6-1.2-20-1.2H473v78.1l20.3-.3c19.7-.3 20.3-.4 25.8-3.1z" fill="#000000" data-color="1" id="path1234"></path><path d="M488 466v-10h8.8c7.1 0 9.6.4 13.2 2.3 7.5 3.7 8 10.8 1.1 15.4-3 2-4.6 2.3-13.2 2.3H488v-10z" fill="#000000" data-color="1" id="path1236"></path><path d="M488 433.5V424h7.6c7 0 7.8.2 10.5 2.9 7.5 7.6.5 16.1-13.3 16.1H488v-9.5z" fill="#000000" data-color="1" id="path1238"></path><path d="M576 450v-54h114v108H576v-54zm72.1 37.4c9.4-2.8 15.9-11.4 15.9-20.9-.1-6.8-7.4-16.6-13.6-18.1l-2.5-.6 3.5-3.4c8.3-8.1 6.7-22.4-3.3-29.1-5.4-3.6-9.6-4.3-26.8-4.3H605v78h18.8c14.4 0 20.1-.4 24.3-1.6z" fill="#000000" data-color="1" id="path1240"></path><path d="M620 465.9v-10.1l10.3.4c7.8.3 11 .8 13.4 2.3 4.3 2.5 5.7 6.6 3.8 11.1-2 4.9-6.2 6.4-18 6.4H620v-10.1z" fill="#000000" data-color="1" id="path1242"></path><path d="M620 433.4v-9.6l8.4.3c9.2.4 12 1.8 12.9 6.7 1.4 7.2-5.1 12.2-15.8 12.2H620v-9.6z" fill="#000000" data-color="1" id="path1244"></path><path d="M709 450v-54h114v108H709v-54zm77.8 38.5c3.4-.8 8-2.4 10.2-3.5l4-2v-7.5c0-4.1-.2-7.5-.5-7.5s-3.2 1.3-6.3 2.9c-17.9 9-37 7.8-46.8-3.1-4.9-5.4-6.6-10.1-6.6-17.5-.1-23.7 26-34.4 52.6-21.8 2.9 1.4 5.6 2.5 5.9 2.5.4 0 .7-3.3.7-7.4v-7.4l-4.1-1.6c-12.2-4.9-30-6.1-40.8-2.7-15.7 4.9-26.4 16.5-29.2 31.8-3.6 19.2 8.3 38.1 27.7 44.3 7.4 2.4 24.2 2.6 33.2.5z" fill="#000000" data-color="1" id="path1246"></path><path d="M320.2 322.9c-7.6-3.8-15.4-12.1-19.6-20.9-2.8-5.9-3.1-7.4-3.1-16.4v-9.8l3.8-3.3c7.8-6.7 26.7-11 46.2-10.3 10.9.3 12.5.6 17.2 3.2 6.6 3.7 9.3 8.6 9.3 17.2 0 12.5-4.9 23.3-15 33.5-7.9 8-12.7 9.9-24.5 9.9-7.1 0-9-.4-14.3-3.1z" fill="#000000" data-color="1" id="path1248"></path><path d="M1001.1 301.3c-5.4-2.8-7.1-7.2-7.1-18.1 0-10.6 1.6-14.9 7.4-20 9-7.9 26.2-4.6 34 6.5 3.3 4.8 4.5 12.1 2.7 17.6-1.5 4.3-7.8 10.2-13.9 12.9-6.5 2.9-18.7 3.5-23.1 1.1z" fill="#000000" data-color="1" id="path1250"></path><path d="M778 264.1c-9.3-2-16.2-8.1-21.1-18.5-4-8.4-5.2-15.3-4.7-27.5.5-13.6 2.6-18.2 9.6-21.3 4.1-1.8 5.9-2 15.7-1.5 23.1 1.3 44.3 9.7 51.6 20.7 2.5 3.8 2.9 5.2 2.9 11.7 0 5.8-.5 8.4-2.4 12.1-4.5 9-15.3 17.7-27 22.1-6.4 2.4-18.8 3.5-24.6 2.2z" fill="#000000" data-color="1" id="path1252"></path><path d="M277.7 237c-8.2-3.2-17.7-11.5-21.7-18.9-.8-1.6-1.1-5.3-.8-11.5.3-8 .8-9.9 3.8-15.5 4.4-8.3 10.7-14.6 17.6-17.8 4.9-2.2 6.5-2.4 15.3-2.1 8.8.3 10.1.6 13.4 3 2 1.6 4.7 5.2 6.3 8.5 2.3 4.9 2.8 7.5 3.2 16.7.5 12-.7 19.5-4.3 26.6-2.7 5.3-7.8 10.4-11.8 11.9-4.5 1.7-15.6 1.2-21-.9z" fill="#000000" data-color="1" id="path1254"></path><path d="M630.5 174.7c-12.3-5-17.6-12.7-16.1-23.2.9-6 5.8-11.5 13.4-15.1 4.7-2.2 7.5-2.8 15.9-3.2 9.5-.4 10.6-.3 15.6 2.1 7.7 3.8 9.7 7.8 9.7 19.2 0 11.1-1.7 14.2-9.8 18.2-4.9 2.4-7.1 2.8-15.7 3-6.2.2-11.1-.2-13-1z" fill="#000000" data-color="1" id="path1256"></path><path d="M430.5 167.6c-6.5-2.5-8.1-6.4-7.3-17.9.7-11.6 9.3-25.4 19.6-31.4 6.4-3.8 17.3-4.4 23.6-1.3 6.7 3.2 9.6 8.6 9.6 17.6 0 8.6-2.7 14.7-9.8 22.5-6.6 7.2-14.4 10.9-24.5 11.5-4.9.3-8.5 0-11.2-1z" fill="#000000" data-color="1" id="path1258"></path><path d="M1070 503.3c-20.4-3.4-42.6-19.5-47.6-34.7-5-14.9 2.7-33.5 16.8-40.7 8.7-4.4 14.9-.5 21.2 13.3 2.1 4.6 4.7 10.2 5.8 12.6 4.5 9.6 10.2 13.2 17.7 11.2s15.1-11 15.1-17.7c-.1-3.7-3.5-11.1-6.8-14.6-1.5-1.6-7.8-6-14-9.8-14.8-9.3-18.2-14-18.2-25.4 0-11.2 6.1-24.5 15.6-33.9 7.2-7.2 14.5-11.8 24.6-15.4 6.5-2.4 8.7-2.6 20.8-2.6 12.2 0 14.3.3 21.5 2.7 15.9 5.6 29.6 16.1 36 27.7 2.7 5 3 6.4 3 14.5 0 10.6-1.9 15.4-9.2 23.5-12.8 14.2-22.9 11.6-30.9-8-6.8-16.7-11-22-17.7-22-5.5 0-13.8 4.7-17.2 9.7-4.7 7-2.7 16.3 5 22.5 1.7 1.4 5.9 4.4 9.5 6.8 12 8 16.2 11.5 18.8 16 2.4 4 2.7 5.5 2.6 13 0 6.8-.6 9.8-2.7 15-7.2 17.2-23.8 31-42.7 35.4-6 1.4-20.9 1.9-27 .9z" fill="#5f5c5c" data-color="2" id="path1260" style="fill:#ffffff"></path><path d="M136.5 501.5c-25.6-5.6-55.4-26.4-79.7-55.6-20.5-24.8-33.1-49.6-37.3-73.6-1.9-11.2-1.9-30.6 0-41.6 4.3-24.7 18.2-51.5 38.8-74.8 15.9-17.9 25.4-23.2 42.2-23.3 19.3-.2 37 7.9 67 30.4 20.1 15.1 25.7 22.1 27.1 34.4 1.2 10.2-4.7 23.2-14.5 31.6-2.5 2.3-8 5.7-12 7.8-7.2 3.5-8 3.7-17.5 3.7-8.5 0-10.8-.4-14.2-2.2-6.2-3.3-10.9-9.2-14-17.8-3.9-10.4-6.3-12.9-11.5-12.2-7.6 1-10.9 6.3-11.6 18.1-1.2 18.6 7.6 46.4 20.3 64.2 6.9 9.7 18.4 19.8 28.1 24.6 7.9 3.9 9.2 4.3 18.3 4.6 7.1.3 11.3 0 15.6-1.3 14.1-4 18.2-11.7 22.8-42 3.1-20.5 3.7-23.1 6.6-28.9 5.7-11.8 14.9-12.4 29.3-1.9 9.1 6.7 28 26.3 30.7 31.9 10.5 21.5-8.4 60.7-44.6 92.6-14.6 12.9-20.7 17.2-32.9 23.3-14.4 7.1-24.3 9.5-39.5 9.4-6.3 0-14.2-.6-17.5-1.4z" fill="#5f5c5c" data-color="2" id="path1262" style="fill:#ffffff"></path><path d="M1008.7 388c-8.9-1.6-19.1-5.1-28.2-9.8-7.1-3.6-10.9-6.5-17.6-13.2-7.3-7.3-9.4-10.1-13.2-18-6.3-13.1-8.1-22.2-7.4-36.9.7-13.6 2.4-20.5 7.9-32.1 3.3-6.8 5.7-10.1 12.2-16.5 8.5-8.5 15.3-12.7 26.6-16.5 9.2-3.1 30.7-3.9 41.3-1.6 16.5 3.7 29.3 15.3 34.7 31.6 1.9 5.5 2.1 8.2 1.8 18.1-.3 10.9-.5 11.9-4 19-4.3 8.8-11.4 16.2-17.6 18.6-4.3 1.6-4.8 1.6-13.4-.5-4.9-1.2-16-4.9-24.5-8.3-11.1-4.3-16.5-5.9-19.1-5.7-3.6.3-3.7.4-4 4.5-.6 8.1 8.4 21.3 17.3 25.4 3.3 1.5 6.5 1.9 18.6 1.9 14.3 0 14.6 0 17 2.6 2.1 2.3 2.4 3.5 2.4 10.7 0 7.6-.3 8.7-3.9 15.4-2.5 4.8-5 8-7.2 9.4-4 2.4-12.4 3.2-19.7 1.9zm12.9-91c6.1-2.6 12.2-8.6 13.5-13.1 1.1-3.4.9-4.4-1.3-8.6-2.7-5.4-9-10.7-14.7-12.4-11.4-3.4-22.1 6.5-22.1 20.3 0 14.8 9.9 20.3 24.6 13.8z" fill="#5f5c5c" data-color="2" id="path1264" style="fill:#ffffff"></path><path d="M319.5 365.4c-17.2-2-29.5-5.4-41-11.1-25.3-12.7-44-34.4-56.9-66.1-10.1-24.5-14.1-44-13.4-64.5.4-11.5.9-14.5 3.8-22.9 4.1-12.3 10.5-22.1 20.7-31.9 9.5-9.1 17.1-14.2 32.8-22 16.6-8.2 27.5-10.9 47.1-11.6 16.8-.6 27.2.8 37 5.2 12 5.3 15.6 10.3 15.5 21.4-.1 7.2-1.7 13.7-8 30.9-2.3 6.3-4.4 13.8-4.7 16.7-.6 4.7-.3 6 2 9.9 5.4 9.2 11.7 12.1 36.1 16.6 28.2 5.2 37.4 10.1 46.4 24.5 7.2 11.4 9.2 28.2 5 40.7-8.6 25.7-43.8 51.9-81.4 60.6-13.8 3.2-31 4.7-41 3.6zm25.1-44.1c9.5-3.2 21.7-18.1 25-30.7 1.9-7 1.7-10.3-.6-15.1-3.1-6.5-9.8-9.7-21.4-10.3-16.1-.8-35.9 3.9-43.3 10.3-3.7 3.2-3.8 3.4-3.8 10.1 0 8.7 3.8 17.4 11.4 25.6 9.7 10.6 21 14.1 32.7 10.1zm-48.9-86.4c4-1.5 9.1-6.7 11.8-11.9 7.6-15.2 5.1-37.9-5.2-45.7-5.3-4.1-15-4.5-22.7-1-10.9 5-20.4 18.4-21.3 30.2-.6 6.7 0 8.5 4.9 14.5 8.7 11 23.6 17.3 32.5 13.9z" fill="#5f5c5c" data-color="2" id="path1266" style="fill:#ffffff"></path><path d="M759 311.4c-16.6-3.2-30.3-9.9-40.8-19.8-8.6-8.2-12.9-15-17.2-27.1-5.9-16.9-7.7-30.9-6-46.5 2.2-20.1 7.7-33.7 22.9-56.4 15.5-23.1 16.4-26.1 18-54.8 1.1-19.5 4.3-37.7 9.2-51.7 8.9-26 25.7-38.9 45.6-35.2 3.6.7 8.6 2.3 11.2 3.6 5.6 2.8 13.1 10.5 16 16.1 3.9 8 4.6 19.9 1.5 28.5-1.6 4.8-9.6 18.4-21.1 36.5-10.9 16.9-12.8 20.4-16.4 31.3-5.1 15.1-3.4 23.2 5.8 27.3 4.6 2 4.8 2 14.7.3 24.4-4.3 45.1 2.4 54.3 17.7 1.8 3 4.3 9.2 5.4 13.8 2.9 11.4 2.3 30.8-1.4 45.1C855 262 839 286.1 823 297c-15 10.2-27.9 14.1-47.5 14.5-7.7.2-15.1.1-16.5-.1zm41-52.7c16-5.9 29-19.8 29-31 0-13.8-23-27-51.3-29.3-15.5-1.2-21.6 4.1-22.5 19.6-.5 9.1.9 16.6 4.7 24.6 8.1 17.2 22.1 22.8 40.1 16.1z" fill="#5f5c5c" data-color="2" id="path1268" style="fill:#ffffff"></path><path d="M879.7 305.9c-12.1-2.8-19.7-11.8-18.2-21.3 2.9-17.6 34.2-52.9 54.3-61.2 18.4-7.6 27.4 4.7 21.3 28.9-7.3 28.5-30.8 54.9-48.5 54.6-2.8-.1-6.8-.5-8.9-1z" fill="#5f5c5c" data-color="2" id="path1270" style="fill:#ffffff"></path><path d="M632.7 259c-36.7-4.2-62.8-25.8-71.8-59.5-3-11.2-3-30.7 0-41.9 5.7-21.4 18-36.6 37.6-46.1 12.4-6 18.8-7.6 34.1-8.2 14.7-.6 20.4.5 30.7 6 21 11.1 32 40.7 23.6 63.3-3.2 8.5-8.6 16.2-13.8 19.6-4.5 2.9-4.8 3-14.1 2.4-5.2-.3-13.5-1.5-18.5-2.6-25.1-5.5-30.4-6.4-33-5.2-7.3 3.4 3.2 21.4 16.4 28.1 5.2 2.7 12.8 2.7 25.2.1 12.2-2.6 14.1-2.5 17.8.6 3.9 3.2 5.4 8.9 4.9 17.4-.9 12.6-6.7 22.5-14.6 24.8-5.6 1.7-15.8 2.1-24.5 1.2zm23.7-89.4c7.1-3.5 9.6-7.4 9.6-15.1 0-8.1-2.8-12.8-9.7-16.2-4.8-2.3-6.2-2.5-12.6-2-17 1.3-29.4 12.4-25.1 22.6 2.5 5.9 6.5 9.4 14.9 12.8 5 2.1 16.5 1 22.9-2.1z" fill="#5f5c5c" data-color="2" id="path1272" style="fill:#ffffff"></path><path d="M461.8 243c-18.4-3.3-33.8-11.8-47-25.8-30.1-31.9-27.8-76.5 5.5-108.4 16.6-15.9 39.9-19.3 59.9-8.6 7.2 3.8 18 13.6 21.3 19.2 6.5 11.1 8.9 26.4 5.2 33.4-2.3 4.3-14.9 14.1-28.4 22.1-5.9 3.6-13.2 8.2-16.1 10.4-4.7 3.4-5.3 4.2-5 7 .3 2.7 1.1 3.6 5.3 5.7 4.2 2.1 6.4 2.5 14.5 2.5 14.6 0 18.3-2.4 29.8-19 5.7-8.3 7.6-10.3 10.5-11.4 3.4-1.3 8.5.2 13.1 3.8 5 4 7.1 6.8 10.6 14.3 5.4 11.4 3.6 18.6-7.7 29.5-11.2 10.9-27.3 20.2-41.1 23.8-7.5 1.9-23.8 2.7-30.4 1.5zm-9.5-80.7c10.3-4.6 20.7-18.5 20.7-27.7 0-9.5-9.3-17.5-18.7-16.2-9.4 1.3-19.1 9.7-24.5 21.3-9.8 20.8 1.4 32 22.5 22.6z" fill="#5f5c5c" data-color="2" id="path1274" style="fill:#ffffff"></path><path d="M943.5 203.4c-9.1-4.9-13.2-13.4-12.2-25.3 1.5-16.9 8.1-26.1 18.7-26.1 4.7 0 13.5 3.5 18.9 7.4 6 4.4 8.5 9.1 7.5 14.3-1.6 9-11.6 23.2-19.8 28.2-4.6 2.8-9.6 3.4-13.1 1.5z" fill="#5f5c5c" data-color="2" id="path1276" style="fill:#ffffff"></path></g></svg>