<svg xmlns="http://www.w3.org/2000/svg" xmlns:xlink="http://www.w3.org/1999/xlink" width="1080" height="1080" viewBox="0 0 1080 1080" xml:space="preserve">
<desc>Created with Fabric.js 4.2.0</desc>
<defs>
</defs>
<g transform="matrix(1 0 0 1 540 540)" id="1c903793-c14a-4c19-bfcc-c2907353032f">
<rect style="stroke: none; stroke-width: 1; stroke-dasharray: none; stroke-linecap: butt; stroke-dashoffset: 0; stroke-linejoin: miter; stroke-miterlimit: 4; fill: rgb(255,255,255); fill-opacity: 0; fill-rule: nonzero; opacity: 1;" x="-540" y="-540" rx="0" ry="0" width="1080" height="1080"></rect>
</g>
<g transform="matrix(1 0 0 1 540 540)" id="39053719-a110-4f45-a7f2-4377f135fe02">
</g>
<g transform="matrix(0.46 0 0 0.46 540 540)" id="5ab23358-bbba-436b-8c25-45fabb564f87">
<path style="stroke: rgb(0,0,0); stroke-width: 0; stroke-dasharray: none; stroke-linecap: butt; stroke-dashoffset: 0; stroke-linejoin: miter; stroke-miterlimit: 4; fill: rgb(0,0,0); fill-rule: nonzero; opacity: 1;" transform=" translate(-566.78, -985.45)" d="M 538.1 1449.9 C 535.6 1449.4 525.9 1448.3000000000002 516.6 1447.5 C 484.20000000000005 1444.5 459.8 1439.1 419 1425.9 C 372.6 1410.8000000000002 321 1384.2 286.7 1357.6000000000001 C 269.09999999999997 1343.9 265.9 1341.3000000000002 252.39999999999998 1329.0000000000002 C 238.49999999999997 1316.3000000000002 217.59999999999997 1294.2000000000003 210.29999999999998 1284.5000000000002 C 208.29999999999998 1281.8000000000002 206.1 1279.1000000000001 205.39999999999998 1278.5000000000002 C 200.49999999999997 1274.2000000000003 174.49999999999997 1236.1000000000001 163.49999999999997 1217.0000000000002 C 155.29999999999998 1202.7000000000003 138.49999999999997 1169.2000000000003 134.19999999999996 1158.5000000000002 C 124.49999999999996 1133.9000000000003 118.39999999999996 1115.1000000000001 112.99999999999996 1093.0000000000002 C 107.69999999999996 1071.3000000000002 102.69999999999996 1038.7000000000003 103.69999999999996 1032.2000000000003 C 103.99999999999996 1030.4000000000003 103.69999999999996 1028.4000000000003 103.09999999999997 1027.7000000000003 C 101.79999999999997 1026.0000000000002 100.79999999999997 960.3000000000003 102.09999999999997 959.4000000000003 C 102.59999999999997 959.1000000000004 102.69999999999996 956.5000000000003 102.39999999999996 953.6000000000004 C 101.99999999999996 950.1000000000004 102.09999999999997 948.0000000000003 102.89999999999996 947.6000000000004 C 103.59999999999997 947.1000000000004 103.79999999999997 945.1000000000004 103.39999999999996 941.6000000000004 C 102.99999999999996 938.0000000000003 103.09999999999997 936.0000000000003 103.89999999999996 935.6000000000004 C 104.59999999999997 935.1000000000004 104.79999999999997 933.6000000000004 104.39999999999996 931.4000000000003 C 104.09999999999997 929.5000000000003 104.19999999999996 928.0000000000003 104.59999999999997 928.0000000000003 C 105.09999999999997 928.0000000000003 105.59999999999997 925.1000000000004 105.59999999999997 921.6000000000004 C 105.69999999999996 918.1000000000004 106.09999999999997 914.6000000000004 106.59999999999997 913.8000000000004 C 107.09999999999997 913.1000000000004 107.59999999999997 910.3000000000004 107.69999999999996 907.7000000000004 C 107.79999999999995 905.0000000000003 108.19999999999996 902.1000000000004 108.59999999999997 901.2000000000004 C 108.99999999999997 900.3000000000004 109.49999999999997 897.5000000000003 109.69999999999996 895.0000000000003 C 110.29999999999995 888.1000000000004 111.79999999999995 884.4000000000003 114.59999999999997 883.1000000000004 C 119.59999999999997 880.8000000000004 118.59999999999997 880.1000000000004 149.49999999999997 909.4000000000003 C 159.39999999999998 918.8000000000003 171.79999999999998 930.5000000000003 176.99999999999997 935.5000000000003 C 193.69999999999996 951.2000000000004 241.2 997.0000000000003 250.7 1006.6000000000004 C 262 1018.0000000000003 270.2 1028.3000000000004 279.09999999999997 1042.0000000000005 C 282.9 1047.8000000000004 288.99999999999994 1057.2000000000005 292.7 1063.0000000000005 C 300.9 1075.7000000000005 316 1093.9000000000005 326.2 1103.6000000000004 C 340 1116.5000000000005 367 1137.3000000000004 380.8 1145.4000000000003 C 383.90000000000003 1147.2000000000003 381.2 1143.2000000000003 371.2 1130.8000000000004 C 361.5 1118.8000000000004 345 1097.1000000000004 337.4 1086.4000000000003 C 333.09999999999997 1080.3000000000004 319.59999999999997 1061.2000000000003 311.2 1049.6000000000004 C 298.8 1032.2000000000003 297.09999999999997 1028.8000000000004 298.4 1023.6000000000004 C 299.4 1019.6000000000004 305 1014.3000000000004 309.7 1013.0000000000003 C 313.5 1011.8000000000003 314.3 1011.9000000000003 318.7 1014.1000000000004 C 322.9 1016.2000000000004 325.59999999999997 1019.3000000000004 340.5 1039.1000000000004 C 349.9 1051.6000000000004 361.9 1067.5000000000005 367.2 1074.6000000000004 C 372.5 1081.7000000000003 381.8 1094.3000000000004 387.9 1102.5000000000005 C 393.9 1110.8000000000004 400.7 1119.8000000000004 402.79999999999995 1122.5000000000005 C 410.79999999999995 1132.6000000000004 418.4 1143.8000000000004 425.29999999999995 1155.5000000000005 C 437.49999999999994 1176.2000000000005 445.69999999999993 1185.8000000000004 460.4 1196.7000000000005 C 465.5 1200.5000000000005 469 1202.0000000000005 469 1200.5000000000005 C 469 1199.6000000000004 462.6 1185.6000000000004 456.9 1174.0000000000005 C 451 1162.0000000000005 441.29999999999995 1146.7000000000005 420.09999999999997 1116.6000000000004 C 388.2 1070.8000000000004 373.09999999999997 1048.7000000000003 365.99999999999994 1037.2000000000003 C 360.29999999999995 1027.7000000000003 359.69999999999993 1026.3000000000002 359.59999999999997 1020.8000000000003 C 359.49999999999994 1016.7000000000003 359.9 1014.0000000000003 361.09999999999997 1012.0000000000003 C 363.29999999999995 1008.5000000000003 369.2 1005.5000000000003 374.09999999999997 1005.5000000000003 C 380.9 1005.5000000000003 382.2 1007.0000000000003 401.7 1036.5000000000005 C 407.5 1045.3000000000004 413 1053.4000000000005 414 1054.5000000000005 C 415.1 1055.6000000000004 415.9 1056.8000000000004 416 1057.2000000000005 C 416 1058.1000000000006 420 1063.8000000000004 428.5 1075.4000000000005 C 434.1 1083.0000000000005 447.4 1101.5000000000005 451.3 1107.0000000000005 C 460.8 1120.6000000000004 473.6 1141.5000000000005 482.3 1158.0000000000005 C 489.6 1171.7000000000005 494.90000000000003 1184.7000000000005 499.40000000000003 1199.5000000000005 C 502.50000000000006 1210.1000000000004 508.90000000000003 1228.3000000000004 514.8000000000001 1243.5000000000005 C 515.9000000000001 1246.3000000000004 519.1 1254.8000000000004 522.0000000000001 1262.5000000000005 C 524.9000000000001 1270.2000000000005 528.6000000000001 1279.2000000000005 530.3000000000001 1282.5000000000005 C 536.7 1295.3000000000004 539.1 1296.9000000000005 544.5000000000001 1292.2000000000005 C 546.3000000000001 1290.5000000000005 547.6000000000001 1288.9000000000005 547.3000000000001 1288.6000000000006 C 546.9000000000001 1288.3000000000006 547.2 1288.0000000000007 547.9000000000001 1288.0000000000007 C 548.6000000000001 1288.0000000000007 548.8000000000001 1287.1000000000006 548.4000000000001 1285.6000000000006 C 548.1000000000001 1284.2000000000005 548.2 1282.4000000000005 548.7 1281.6000000000006 C 550 1279.2000000000005 548.5 1264.2000000000005 546.2 1257.5000000000007 C 545 1254.2000000000007 543.9000000000001 1250.4000000000008 543.8000000000001 1249.0000000000007 C 543.6 1247.6000000000006 543.2 1246.1000000000006 542.8000000000001 1245.5000000000007 C 542.5000000000001 1245.0000000000007 539.9000000000001 1236.6000000000006 537.0000000000001 1227.0000000000007 C 528.8000000000001 1199.1000000000006 511.0000000000001 1146.9000000000008 506.0000000000001 1135.5000000000007 C 505.5000000000001 1134.4000000000008 502.4000000000001 1127.2000000000007 499.10000000000014 1119.5000000000007 C 481.5000000000001 1077.9000000000008 464.0000000000001 1046.4000000000008 438.90000000000015 1011.0000000000007 C 418.3000000000001 982.0000000000007 407.60000000000014 960.0000000000007 401.3000000000001 933.5000000000007 C 397.90000000000015 919.4000000000007 397.40000000000015 896.4000000000007 400.3000000000001 886.2000000000007 C 402.40000000000015 878.2000000000007 407.7000000000001 865.9000000000008 409.60000000000014 864.4000000000008 C 410.3000000000001 863.8000000000008 410.70000000000016 863.1000000000008 410.5000000000001 862.8000000000008 C 410.2000000000001 862.5000000000008 411.2000000000001 861.0000000000008 412.7000000000001 859.4000000000008 C 414.2000000000001 857.8000000000008 415.5000000000001 856.1000000000008 415.5000000000001 855.7000000000007 C 415.5000000000001 855.2000000000007 416.7000000000001 853.8000000000008 418.10000000000014 852.7000000000007 C 419.5000000000001 851.5000000000007 421.0000000000001 849.7000000000007 421.3000000000001 848.8000000000008 C 421.60000000000014 847.9000000000008 423.2000000000001 846.3000000000008 424.7000000000001 845.3000000000008 C 426.2000000000001 844.3000000000008 428.3000000000001 842.5000000000008 429.3000000000001 841.3000000000008 C 430.3000000000001 840.0000000000008 431.60000000000014 839.0000000000008 432.2000000000001 839.0000000000008 C 432.8000000000001 839.0000000000008 433.8000000000001 838.3000000000008 434.4000000000001 837.6000000000008 C 436.6000000000001 834.7000000000008 453.80000000000007 824.7000000000008 471.5000000000001 815.9000000000008 C 491.8000000000001 805.9000000000008 494.0000000000001 804.7000000000007 499.0000000000001 800.5000000000008 C 503.0000000000001 797.2000000000008 520.1000000000001 780.0000000000008 519.4000000000001 780.0000000000008 C 519.0000000000001 780.0000000000008 526.8000000000001 769.0000000000008 527.9000000000001 768.0000000000008 C 528.7 767.4000000000008 530.9000000000001 763.5000000000008 536.7 753.0000000000008 C 539.3000000000001 748.3000000000008 541.8000000000001 744.3000000000008 542.2 744.2000000000008 C 542.6 744.0000000000008 542.8000000000001 743.4000000000009 542.4000000000001 742.9000000000009 C 542.1000000000001 742.4000000000009 542.3000000000001 742.0000000000009 542.9000000000001 742.0000000000009 C 543.5000000000001 742.0000000000009 543.7 741.3000000000009 543.4000000000001 740.5000000000009 C 543.0000000000001 739.700000000001 543.3000000000001 739.0000000000009 543.9000000000001 739.0000000000009 C 544.5000000000001 739.0000000000009 544.7 738.3000000000009 544.4000000000001 737.5000000000009 C 544.0000000000001 736.700000000001 544.3000000000001 736.0000000000009 545.0000000000001 736.0000000000009 C 545.6000000000001 736.0000000000009 545.8000000000001 735.5000000000009 545.5000000000001 735.0000000000009 C 545.2000000000002 734.5000000000009 545.4000000000001 734.0000000000009 546.0000000000001 734.0000000000009 C 546.7000000000002 734.0000000000009 546.9000000000001 733.200000000001 546.5000000000001 732.0000000000009 C 546.1000000000001 730.9000000000009 546.3000000000001 730.0000000000009 546.9000000000001 730.0000000000009 C 547.5000000000001 730.0000000000009 547.7 729.3000000000009 547.4000000000001 728.5000000000009 C 547.0000000000001 727.700000000001 547.2 727.0000000000009 547.8000000000001 727.0000000000009 C 548.3000000000001 727.0000000000009 548.8000000000001 726.0000000000009 548.8000000000001 724.8000000000009 C 548.8000000000001 723.5000000000009 549.1 720.0000000000009 549.3000000000001 717.0000000000009 C 549.9000000000001 710.1000000000009 548.1 705.3000000000009 544.6 704.4000000000009 C 541.5 703.6000000000009 533.6 707.1000000000009 531.8000000000001 710.0000000000009 C 531.1 711.1000000000009 530.1 712.0000000000009 529.7 712.0000000000009 C 529.2 712.0000000000009 527.1 713.700000000001 525.1 715.700000000001 C 520.4 720.300000000001 516.1 724.0000000000009 515.2 724.0000000000009 C 514.8000000000001 724.0000000000009 512.8000000000001 725.700000000001 510.70000000000005 727.8000000000009 C 501.20000000000005 737.2000000000008 487.30000000000007 749.0000000000009 479.50000000000006 754.3000000000009 C 476.20000000000005 756.5000000000009 473.40000000000003 758.7000000000008 473.20000000000005 759.2000000000008 C 473.00000000000006 759.6000000000008 472.40000000000003 760.0000000000008 472.00000000000006 760.0000000000008 C 471.50000000000006 760.0000000000008 469.50000000000006 761.1000000000008 467.50000000000006 762.4000000000008 C 457.6000000000001 769.1000000000008 437.30000000000007 774.4000000000008 413.50000000000006 776.5000000000008 C 405.80000000000007 777.2000000000008 381.1000000000001 774.9000000000008 370.30000000000007 772.6000000000008 C 345.6000000000001 767.2000000000008 322.30000000000007 767.0000000000008 304.00000000000006 772.0000000000008 C 299.90000000000003 773.2000000000008 289.00000000000006 776.0000000000008 279.70000000000005 778.4000000000008 C 270.50000000000006 780.8000000000008 262.70000000000005 783.0000000000008 262.30000000000007 783.4000000000008 C 260.9000000000001 784.8000000000008 251.80000000000007 783.9000000000008 245.20000000000007 781.6000000000008 C 237.70000000000007 779.1000000000008 231.20000000000007 775.1000000000008 226.40000000000006 769.8000000000009 C 218.60000000000005 761.5000000000009 192.30000000000007 722.0000000000009 191.40000000000006 717.4000000000009 C 191.00000000000006 715.1000000000009 191.30000000000007 712.4000000000009 192.40000000000006 709.5000000000009 C 194.10000000000005 705.1000000000009 207.30000000000007 688.0000000000009 209.10000000000005 688.0000000000009 C 209.60000000000005 688.0000000000009 210.00000000000006 687.4000000000009 210.00000000000006 686.700000000001 C 210.00000000000006 686.0000000000009 214.80000000000007 680.300000000001 220.70000000000005 674.200000000001 C 226.70000000000005 668.0000000000009 231.30000000000004 663.0000000000009 231.10000000000005 663.0000000000009 C 230.90000000000006 663.0000000000009 231.50000000000006 662.1000000000009 232.50000000000006 661.0000000000009 C 233.50000000000006 659.9000000000009 235.00000000000006 659.0000000000009 235.80000000000007 659.0000000000009 C 236.70000000000007 659.0000000000009 237.00000000000006 658.700000000001 236.60000000000008 658.3000000000009 C 236.00000000000009 657.6000000000008 244.80000000000007 648.0000000000009 246.10000000000008 648.0000000000009 C 246.50000000000009 648.0000000000009 249.50000000000009 645.3000000000009 252.70000000000007 642.0000000000009 C 255.90000000000006 638.700000000001 258.80000000000007 636.0000000000009 259.20000000000005 636.0000000000009 C 259.6 636.0000000000009 261.90000000000003 634.1000000000009 264.20000000000005 631.700000000001 C 270.00000000000006 626.0000000000009 289.80000000000007 610.300000000001 293.20000000000005 608.700000000001 C 294.80000000000007 608.1000000000009 296.00000000000006 607.200000000001 296.00000000000006 606.800000000001 C 296.00000000000006 606.000000000001 314.40000000000003 593.1000000000009 316.90000000000003 592.300000000001 C 317.8 591.900000000001 318.70000000000005 591.300000000001 319.00000000000006 591.000000000001 C 319.90000000000003 589.7000000000011 338.50000000000006 579.000000000001 339.70000000000005 579.000000000001 C 340.30000000000007 579.000000000001 341.00000000000006 578.600000000001 341.20000000000005 578.2000000000011 C 341.70000000000005 577.000000000001 358.6 568.000000000001 360.30000000000007 568.000000000001 C 361.20000000000005 568.000000000001 362.00000000000006 567.500000000001 362.20000000000005 567.000000000001 C 362.6 565.800000000001 394.20000000000005 552.000000000001 396.50000000000006 552.000000000001 C 397.40000000000003 552.000000000001 399.1000000000001 551.400000000001 400.30000000000007 550.600000000001 C 407.80000000000007 545.7000000000011 473.30000000000007 527.7000000000011 477.50000000000006 529.400000000001 C 478.30000000000007 529.700000000001 479.00000000000006 529.400000000001 479.20000000000005 528.900000000001 C 479.40000000000003 528.300000000001 482.00000000000006 527.700000000001 485.00000000000006 527.700000000001 C 488.00000000000006 527.6000000000009 490.80000000000007 527.1000000000009 491.1000000000001 526.6000000000009 C 491.50000000000006 526.200000000001 494.6000000000001 525.700000000001 498.1000000000001 525.6000000000009 C 501.6000000000001 525.6000000000009 504.80000000000007 525.200000000001 505.1000000000001 524.800000000001 C 506.30000000000007 523.1000000000009 548.9000000000001 520.000000000001 570.5000000000001 520.000000000001 C 600.5000000000001 520.000000000001 640.9000000000001 523.800000000001 647.7000000000002 527.2000000000011 C 648.8000000000002 527.8000000000011 650.3000000000002 528.000000000001 650.8000000000002 527.600000000001 C 652.6000000000001 526.500000000001 683.3000000000002 534.2000000000011 706.0000000000002 541.500000000001 C 766.8000000000002 561.000000000001 822.4000000000002 592.100000000001 870.5000000000002 633.500000000001 C 896.4000000000002 655.900000000001 932.2000000000003 694.900000000001 939.3000000000002 708.7000000000011 C 941.3000000000002 712.600000000001 941.3000000000002 718.4000000000011 939.3000000000002 721.500000000001 C 938.6000000000001 722.600000000001 938.0000000000002 724.2000000000011 938.0000000000002 725.2000000000011 C 938.0000000000002 726.2000000000011 937.5000000000002 727.000000000001 936.9000000000002 727.000000000001 C 936.4000000000002 727.000000000001 936.1000000000003 727.400000000001 936.5000000000002 727.900000000001 C 936.8000000000002 728.400000000001 936.3000000000002 729.600000000001 935.4000000000002 730.400000000001 C 934.6000000000003 731.300000000001 934.2000000000002 732.000000000001 934.7000000000002 732.000000000001 C 935.1000000000001 732.000000000001 934.7000000000002 732.500000000001 933.7000000000002 733.100000000001 C 932.8000000000002 733.7000000000011 932.2000000000002 734.500000000001 932.5000000000001 735.100000000001 C 932.9000000000001 735.600000000001 932.6000000000001 736.000000000001 931.9000000000001 736.000000000001 C 931.2 736.000000000001 930.9000000000001 736.300000000001 931.3000000000001 736.600000000001 C 931.6 736.900000000001 931.0000000000001 738.100000000001 929.9000000000001 739.3000000000011 C 928.9000000000001 740.4000000000011 928.0000000000001 742.2000000000011 928.0000000000001 743.2000000000011 C 928.0000000000001 744.2000000000011 927.6000000000001 745.000000000001 927.0000000000001 745.000000000001 C 926.5000000000001 745.000000000001 925.2000000000002 746.7000000000011 924.1000000000001 748.800000000001 C 922.2000000000002 752.400000000001 920.3000000000002 754.700000000001 913.5000000000001 762.1000000000009 C 911.6000000000001 764.1000000000009 910.4000000000001 766.1000000000009 910.7000000000002 766.4000000000009 C 911.1000000000001 766.7000000000008 910.7000000000002 767.0000000000009 910.0000000000001 767.0000000000009 C 909.2000000000002 767.0000000000009 907.0000000000001 768.5000000000009 905.0000000000001 770.4000000000009 C 900.6000000000001 774.7000000000008 890.7000000000002 780.7000000000008 885.9000000000001 782.0000000000009 C 880.1000000000001 783.6000000000009 859.2 780.0000000000009 828.0000000000001 772.0000000000009 C 812.9000000000001 768.200000000001 801.7000000000002 766.8000000000009 793.0000000000001 767.6000000000009 C 789.4000000000001 767.9000000000009 777.3000000000001 769.800000000001 766.0000000000001 771.700000000001 C 746.9000000000001 775.0000000000009 744.0000000000001 775.300000000001 724.0000000000001 775.300000000001 C 703.7000000000002 775.400000000001 701.9000000000001 775.200000000001 692.5000000000001 772.700000000001 C 668.2000000000002 766.200000000001 655.8000000000001 758.5000000000009 629.5000000000001 733.900000000001 C 623.5000000000001 728.300000000001 614.5000000000001 720.400000000001 609.5000000000001 716.500000000001 C 592.7000000000002 703.2000000000011 590.0000000000001 702.000000000001 585.9000000000001 706.100000000001 C 583.9000000000001 708.100000000001 583.8000000000001 709.000000000001 584.3000000000001 717.600000000001 C 585.0000000000001 729.3000000000011 587.2 734.400000000001 602.3000000000001 759.400000000001 C 614.0000000000001 778.900000000001 622.9000000000001 791.000000000001 628.7 795.600000000001 C 638.2 803.2000000000011 651.1 810.8000000000011 673 822.100000000001 C 695.8 833.7000000000011 706.7 841.900000000001 718.3 856.3000000000011 C 728.8 869.3000000000011 734.9 887.7000000000011 735 906.8000000000011 C 735 910.2000000000011 734.3 917.600000000001 733.4 923.3000000000011 C 731.5 936.0000000000011 731.6 935.2000000000011 730.6 936.8000000000011 C 730.2 937.5000000000011 730.1 938.4000000000011 730.4 938.7000000000011 C 730.6999999999999 939.000000000001 730.6 939.8000000000011 730.1 940.4000000000011 C 729.6 941.0000000000011 728.9 943.3000000000011 728.6 945.5000000000011 C 728.2 947.6000000000012 727.5 949.7000000000012 726.9 950.1000000000012 C 726.3 950.4000000000011 725.9 950.9000000000011 726 951.1000000000012 C 726.1 951.3000000000012 725.7 952.8000000000012 725.1 954.3000000000012 C 724.5 955.9000000000012 724 957.5000000000013 724 958.0000000000013 C 724 958.5000000000013 722.9 960.9000000000012 721.5 963.3000000000012 C 720.2 965.8000000000012 719.4 968.1000000000012 719.8 968.4000000000012 C 720.0999999999999 968.8000000000012 720 969.4000000000012 719.4 969.8000000000012 C 718.1999999999999 970.7000000000012 706 992.5000000000013 706 993.9000000000012 C 706 994.5000000000013 705.6 995.0000000000013 705 995.0000000000013 C 704.5 995.0000000000013 704 995.9000000000012 704 997.0000000000013 C 704 998.1000000000013 703.4 999.3000000000012 702.6 999.6000000000013 C 701.8000000000001 999.9000000000012 700.9 1001.2000000000013 700.6 1002.6000000000013 C 700.2 1003.9000000000012 699.5 1005.0000000000013 699 1005.0000000000013 C 698.4 1005.0000000000013 698 1005.6000000000013 698 1006.4000000000012 C 698 1007.2000000000012 697.6 1008.0000000000013 697.2 1008.2000000000012 C 696.1 1008.6000000000012 688 1020.9000000000012 688 1022.1000000000012 C 688 1022.6000000000012 687.6 1023.0000000000011 687.2 1023.0000000000011 C 686.5 1023.0000000000011 682.6 1028.9000000000012 682.5 1030.0000000000011 C 682.5 1030.300000000001 681.5 1031.600000000001 680.3 1032.9000000000012 C 679.0999999999999 1034.2000000000012 678.3 1035.7000000000012 678.5999999999999 1036.2000000000012 C 678.8999999999999 1036.6000000000013 678.5999999999999 1037.0000000000011 678.0999999999999 1037.0000000000011 C 677.4999999999999 1037.0000000000011 676.9999999999999 1037.4000000000012 676.9999999999999 1038.0000000000011 C 676.9999999999999 1038.800000000001 673.3999999999999 1044.800000000001 671.1999999999999 1047.5000000000011 C 668.4 1051.100000000001 665.9999999999999 1055.0000000000011 666.5999999999999 1055.0000000000011 C 666.9999999999999 1055.0000000000011 666.6999999999999 1055.600000000001 665.8 1056.300000000001 C 664.9 1056.900000000001 662.5 1060.7000000000012 660.4 1064.5000000000011 C 658.3 1068.4000000000012 656.3 1071.600000000001 655.9 1071.800000000001 C 655.4 1072.0000000000011 655.4 1072.800000000001 655.6999999999999 1073.600000000001 C 655.9999999999999 1074.400000000001 655.8 1075.0000000000011 655.1999999999999 1075.0000000000011 C 654.1999999999999 1075.0000000000011 651.4999999999999 1080.600000000001 652.0999999999999 1081.300000000001 C 652.3 1081.5000000000011 651.8 1082.5000000000011 650.9999999999999 1083.400000000001 C 650.1999999999999 1084.400000000001 649.4999999999999 1085.800000000001 649.3999999999999 1086.600000000001 C 649.2999999999998 1087.300000000001 648.4999999999999 1088.700000000001 647.5999999999999 1089.600000000001 C 646.0999999999999 1091.100000000001 645.5999999999999 1092.5000000000011 645.8999999999999 1094.400000000001 C 645.9999999999999 1094.900000000001 645.6999999999998 1095.600000000001 645.2999999999998 1095.900000000001 C 643.7999999999998 1097.000000000001 637.0999999999998 1110.700000000001 637.6999999999998 1111.400000000001 C 638.0999999999998 1111.700000000001 637.7999999999998 1112.000000000001 637.1999999999998 1112.000000000001 C 636.4999999999998 1112.000000000001 635.9999999999998 1112.500000000001 635.9999999999998 1113.1000000000008 C 635.9999999999998 1113.6000000000008 635.0999999999998 1116.000000000001 634.0999999999998 1118.3000000000009 C 630.1999999999998 1126.9000000000008 627.1999999999998 1135.000000000001 627.7999999999998 1135.000000000001 C 628.1999999999998 1135.000000000001 627.9999999999999 1135.400000000001 627.2999999999998 1135.8000000000009 C 626.6999999999998 1136.200000000001 625.4999999999999 1138.8000000000009 624.7999999999998 1141.500000000001 C 624.0999999999998 1144.3000000000009 623.1999999999998 1146.700000000001 622.7999999999998 1147.000000000001 C 621.5999999999998 1147.900000000001 619.0999999999998 1155.700000000001 619.6999999999998 1156.400000000001 C 620.0999999999998 1156.700000000001 619.7999999999998 1157.000000000001 619.0999999999998 1157.000000000001 C 618.2999999999998 1157.000000000001 617.9999999999998 1157.700000000001 618.3999999999997 1158.500000000001 C 618.6999999999997 1159.3000000000009 618.4999999999998 1160.000000000001 617.8999999999997 1160.000000000001 C 617.2999999999997 1160.000000000001 617.0999999999998 1160.400000000001 617.3999999999997 1160.900000000001 C 617.7999999999997 1161.400000000001 617.5999999999998 1162.000000000001 616.9999999999998 1162.200000000001 C 616.4999999999998 1162.3000000000009 615.8999999999997 1163.600000000001 615.7999999999997 1165.000000000001 C 615.5999999999997 1166.400000000001 615.1999999999997 1167.700000000001 614.8999999999997 1168.000000000001 C 614.4999999999998 1168.3000000000009 611.6999999999997 1176.400000000001 608.4999999999998 1186.000000000001 C 605.3999999999997 1195.6000000000008 602.1999999999998 1205.200000000001 601.3999999999997 1207.3000000000009 C 600.5999999999998 1209.3000000000009 599.9999999999998 1212.000000000001 599.9999999999998 1213.3000000000009 C 599.9999999999998 1214.500000000001 599.2999999999997 1216.8000000000009 598.4999999999998 1218.4000000000008 C 597.6999999999998 1219.9000000000008 596.7999999999997 1222.3000000000009 596.4999999999998 1223.6000000000008 C 596.1999999999998 1224.9000000000008 595.6999999999998 1227.2000000000007 595.3999999999997 1228.7000000000007 C 595.0999999999998 1230.2000000000007 594.4999999999998 1231.9000000000008 594.0999999999998 1232.5000000000007 C 593.2999999999998 1233.4000000000008 591.7999999999998 1238.7000000000007 591.3999999999997 1241.5000000000007 C 591.3999999999997 1242.1000000000006 590.9999999999998 1243.2000000000007 590.6999999999997 1244.0000000000007 C 588.9999999999997 1248.0000000000007 583.7999999999997 1267.6000000000006 583.3999999999997 1271.8000000000006 C 582.7999999999997 1277.0000000000007 585.1999999999997 1289.1000000000006 587.5999999999998 1292.7000000000007 C 589.4999999999998 1295.7000000000007 593.9999999999998 1295.7000000000007 596.6999999999998 1292.8000000000006 C 598.6999999999998 1290.6000000000006 603.1999999999998 1282.6000000000006 603.5999999999998 1280.5000000000007 C 603.8999999999997 1278.7000000000007 612.1999999999998 1260.5000000000007 612.7999999999998 1260.0000000000007 C 613.1999999999998 1259.7000000000007 613.5999999999998 1258.8000000000006 613.7999999999998 1258.0000000000007 C 614.2999999999998 1255.1000000000006 616.2999999999998 1251.0000000000007 617.0999999999998 1251.0000000000007 C 617.5999999999998 1251.0000000000007 617.6999999999998 1250.3000000000006 617.3999999999997 1249.5000000000007 C 616.9999999999998 1248.7000000000007 617.2999999999997 1248.0000000000007 617.9999999999998 1248.0000000000007 C 618.5999999999998 1248.0000000000007 618.7999999999997 1247.6000000000006 618.4999999999998 1247.0000000000007 C 618.1999999999998 1246.5000000000007 618.3999999999997 1246.0000000000007 618.9999999999998 1246.0000000000007 C 619.5999999999998 1246.0000000000007 619.7999999999997 1245.6000000000006 619.4999999999998 1245.0000000000007 C 619.1999999999998 1244.5000000000007 619.1999999999998 1244.0000000000007 619.6999999999998 1244.0000000000007 C 620.0999999999998 1244.0000000000007 620.5999999999998 1242.8000000000006 620.6999999999998 1241.3000000000006 C 620.6999999999998 1239.8000000000006 621.2999999999998 1238.4000000000005 621.8999999999999 1238.2000000000007 C 622.4999999999999 1238.0000000000007 622.7999999999998 1237.4000000000008 622.3999999999999 1236.9000000000008 C 622.0999999999999 1236.4000000000008 622.3999999999999 1236.0000000000007 622.9999999999999 1236.0000000000007 C 623.6999999999999 1236.0000000000007 623.8999999999999 1235.2000000000007 623.4999999999999 1234.0000000000007 C 623.0999999999999 1232.8000000000006 623.2999999999998 1232.0000000000007 623.9999999999999 1232.0000000000007 C 624.5999999999999 1232.0000000000007 624.7999999999998 1231.6000000000006 624.4999999999999 1231.0000000000007 C 624.1999999999999 1230.5000000000007 624.3999999999999 1230.0000000000007 624.9999999999999 1230.0000000000007 C 625.6999999999999 1230.0000000000007 625.9999999999999 1229.3000000000006 625.5999999999999 1228.5000000000007 C 625.3 1227.7000000000007 625.4999999999999 1227.0000000000007 626.0999999999999 1227.0000000000007 C 626.6999999999999 1227.0000000000007 626.9999999999999 1226.3000000000006 626.5999999999999 1225.5000000000007 C 626.3 1224.7000000000007 626.3999999999999 1224.0000000000007 626.8 1224.0000000000007 C 627.3 1224.0000000000007 627.6999999999999 1222.3000000000006 627.6999999999999 1220.3000000000006 C 627.8 1218.2000000000007 628.3 1216.4000000000005 628.9 1216.2000000000007 C 629.5 1216.0000000000007 630 1214.6000000000008 630 1213.1000000000008 C 630 1209.3000000000009 637.9 1185.000000000001 639.1 1185.000000000001 C 639.7 1185.000000000001 640 1184.400000000001 639.7 1183.8000000000009 C 639 1181.700000000001 646.7 1163.000000000001 648.3000000000001 1163.000000000001 C 648.8000000000001 1163.000000000001 648.9000000000001 1162.6000000000008 648.5000000000001 1162.000000000001 C 648.2000000000002 1161.500000000001 648.8000000000001 1160.200000000001 650.0000000000001 1159.000000000001 C 651.1000000000001 1157.900000000001 652.0000000000001 1156.8000000000009 652.0000000000001 1156.500000000001 L 652.0000000000001 1155.1000000000008 C 652.0000000000001 1154.6000000000008 652.8000000000001 1153.4000000000008 653.7000000000002 1152.4000000000008 C 654.6000000000001 1151.5000000000007 655.4000000000002 1150.0000000000007 655.5000000000001 1149.1000000000008 C 655.7000000000002 1147.000000000001 669.9000000000001 1125.000000000001 671.2000000000002 1125.000000000001 C 671.7000000000002 1125.000000000001 671.9000000000002 1124.6000000000008 671.5000000000001 1124.000000000001 C 671.2000000000002 1123.500000000001 671.7000000000002 1122.3000000000009 672.7000000000002 1121.3000000000009 C 673.7000000000002 1120.3000000000009 675.1000000000001 1118.200000000001 675.7000000000002 1116.700000000001 C 676.4000000000002 1115.200000000001 677.7000000000002 1113.700000000001 678.5000000000001 1113.400000000001 C 679.3000000000001 1113.000000000001 679.7000000000002 1112.400000000001 679.4000000000001 1111.900000000001 C 679.1000000000001 1111.400000000001 680.0000000000001 1109.900000000001 681.4000000000001 1108.500000000001 C 682.8000000000001 1107.1000000000008 683.6000000000001 1106.000000000001 683.2 1106.000000000001 C 682.8000000000001 1106.000000000001 683.4000000000001 1105.3000000000009 684.4000000000001 1104.500000000001 C 685.5000000000001 1103.700000000001 686.0000000000001 1103.000000000001 685.4000000000001 1103.000000000001 C 684.9000000000001 1103.000000000001 685.2 1102.400000000001 686.0000000000001 1101.700000000001 C 686.8000000000001 1101.000000000001 687.6000000000001 1099.900000000001 687.7000000000002 1099.3000000000009 C 688.1000000000001 1097.3000000000009 695.1000000000001 1088.000000000001 696.2000000000002 1088.000000000001 C 696.7000000000002 1088.000000000001 696.9000000000002 1087.6000000000008 696.5000000000001 1087.000000000001 C 696.2000000000002 1086.500000000001 696.8000000000001 1085.200000000001 697.9000000000001 1084.1000000000008 C 699.0000000000001 1083.000000000001 699.6000000000001 1082.000000000001 699.4000000000001 1081.7000000000007 C 699.1000000000001 1081.5000000000007 700.3000000000001 1079.8000000000006 702.0000000000001 1078.1000000000008 C 703.7000000000002 1076.4000000000008 704.9000000000001 1075.000000000001 704.5000000000001 1075.000000000001 C 703.6000000000001 1075.000000000001 718.8000000000001 1052.8000000000009 721.2000000000002 1050.8000000000009 C 722.3000000000002 1049.8000000000009 722.9000000000002 1049.000000000001 722.4000000000002 1049.000000000001 C 722.0000000000002 1049.000000000001 722.5000000000002 1048.3000000000009 723.6000000000003 1047.500000000001 C 724.6000000000003 1046.700000000001 725.1000000000003 1046.000000000001 724.5000000000002 1046.000000000001 C 724.0000000000002 1046.000000000001 724.6000000000003 1045.3000000000009 725.8000000000002 1044.400000000001 C 727.0000000000002 1043.600000000001 727.8000000000002 1042.500000000001 727.5000000000002 1042.000000000001 C 727.2000000000003 1041.500000000001 727.8000000000002 1040.700000000001 728.7000000000003 1040.1000000000008 C 729.7000000000003 1039.500000000001 730.1000000000003 1039.000000000001 729.7000000000003 1039.000000000001 C 728.7000000000003 1039.000000000001 743.6000000000003 1017.1000000000009 746.1000000000003 1014.8000000000009 C 747.2000000000003 1013.9000000000009 748.0000000000002 1012.7000000000008 748.0000000000002 1012.3000000000009 C 747.9000000000002 1011.9000000000009 748.6000000000003 1011.1000000000008 749.6000000000003 1010.5000000000009 C 750.6000000000003 1010.0000000000009 752.0000000000002 1008.9000000000009 752.8000000000003 1008.3000000000009 C 754.5000000000003 1006.6000000000008 764.2000000000003 1006.6000000000008 766.2000000000003 1008.2000000000008 C 769.2000000000003 1010.8000000000009 771.9000000000003 1015.7000000000008 772.8000000000003 1020.8000000000009 C 773.3000000000003 1023.7000000000008 773.3000000000003 1026.000000000001 772.9000000000003 1026.000000000001 C 772.4000000000003 1026.000000000001 772.0000000000003 1026.6000000000008 772.0000000000003 1027.3000000000009 C 772.0000000000003 1027.9000000000008 771.0000000000003 1030.500000000001 769.9000000000003 1033.000000000001 C 768.8000000000003 1035.500000000001 767.9000000000003 1037.700000000001 768.0000000000003 1037.900000000001 C 768.1000000000004 1038.100000000001 767.8000000000003 1038.600000000001 767.3000000000003 1038.900000000001 C 765.9000000000003 1039.900000000001 761.0000000000003 1046.800000000001 761.0000000000003 1047.800000000001 C 761.0000000000003 1048.300000000001 759.6000000000004 1050.2000000000012 757.8000000000003 1051.900000000001 C 756.1000000000003 1053.600000000001 754.9000000000003 1055.000000000001 755.3000000000003 1055.000000000001 C 755.6000000000003 1055.000000000001 754.8000000000003 1056.200000000001 753.4000000000003 1057.700000000001 C 752.1000000000004 1059.100000000001 751.2000000000003 1060.500000000001 751.4000000000003 1060.700000000001 C 751.6000000000004 1060.900000000001 750.6000000000004 1062.3000000000009 749.1000000000004 1063.900000000001 C 747.7000000000004 1065.400000000001 745.8000000000004 1068.000000000001 745.0000000000003 1069.600000000001 C 744.2000000000004 1071.200000000001 743.2000000000004 1072.700000000001 742.9000000000003 1073.0000000000011 C 741.1000000000004 1074.4000000000012 728.0000000000003 1091.7000000000012 728.0000000000003 1092.600000000001 C 728.0000000000003 1093.300000000001 727.3000000000003 1094.0000000000011 726.5000000000003 1094.400000000001 C 725.7000000000004 1094.700000000001 725.0000000000003 1095.400000000001 725.0000000000003 1095.900000000001 C 725.0000000000003 1096.500000000001 723.9000000000003 1098.100000000001 722.5000000000003 1099.600000000001 C 721.1000000000004 1101.100000000001 720.0000000000003 1102.700000000001 720.0000000000003 1103.200000000001 C 720.0000000000003 1103.600000000001 718.8000000000003 1105.3000000000009 717.4000000000003 1106.900000000001 C 716.0000000000003 1108.500000000001 715.0000000000003 1110.000000000001 715.2000000000003 1110.200000000001 C 715.3000000000003 1110.500000000001 714.8000000000003 1111.3000000000009 714.0000000000002 1112.200000000001 C 713.2000000000003 1113.100000000001 711.8000000000002 1114.8000000000009 711.0000000000002 1116.000000000001 C 710.2000000000003 1117.200000000001 709.0000000000002 1118.8000000000009 708.4000000000002 1119.400000000001 C 707.9000000000002 1120.000000000001 706.5000000000002 1122.100000000001 705.4000000000002 1124.000000000001 C 704.4000000000002 1125.900000000001 703.1000000000003 1127.8000000000009 702.5000000000002 1128.200000000001 C 702.0000000000002 1128.600000000001 701.8000000000002 1129.000000000001 702.2000000000003 1129.000000000001 C 702.6000000000003 1129.000000000001 701.8000000000003 1130.200000000001 700.5000000000002 1131.6000000000008 C 699.1000000000003 1133.1000000000008 698.3000000000002 1134.6000000000008 698.6000000000003 1135.1000000000008 C 698.9000000000002 1135.6000000000008 698.7000000000003 1136.000000000001 698.1000000000003 1136.000000000001 C 697.6000000000003 1136.000000000001 695.4000000000002 1139.000000000001 693.3000000000003 1142.700000000001 C 691.2000000000003 1146.500000000001 689.1000000000003 1150.200000000001 688.5000000000003 1151.100000000001 C 683.2000000000004 1159.800000000001 680.0000000000003 1166.0000000000011 680.0000000000003 1167.300000000001 C 680.0000000000003 1168.300000000001 679.6000000000004 1169.0000000000011 679.0000000000003 1169.0000000000011 C 678.5000000000003 1169.0000000000011 678.0000000000003 1169.7000000000012 678.0000000000003 1170.5000000000011 C 678.0000000000003 1171.300000000001 677.5000000000003 1172.0000000000011 676.9000000000003 1172.0000000000011 C 676.4000000000003 1172.0000000000011 676.2000000000003 1172.5000000000011 676.5000000000003 1173.0000000000011 C 676.8000000000003 1173.600000000001 676.6000000000004 1174.0000000000011 676.0000000000003 1174.0000000000011 C 675.4000000000003 1174.0000000000011 675.2000000000004 1174.5000000000011 675.5000000000003 1175.0000000000011 C 675.8000000000003 1175.600000000001 675.6000000000004 1176.0000000000011 675.0000000000003 1176.0000000000011 C 674.4000000000003 1176.0000000000011 674.1000000000004 1176.4000000000012 674.5000000000003 1176.9000000000012 C 674.8000000000003 1177.4000000000012 674.5000000000003 1178.4000000000012 673.8000000000003 1179.2000000000012 C 673.1000000000003 1179.9000000000012 672.4000000000003 1181.2000000000012 672.2000000000003 1182.0000000000011 C 672.0000000000002 1182.800000000001 671.5000000000002 1183.600000000001 671.0000000000002 1183.800000000001 C 669.7000000000003 1184.300000000001 663.8000000000002 1198.900000000001 664.5000000000002 1200.0000000000011 C 665.6000000000003 1201.7000000000012 678.6000000000003 1193.600000000001 683.4000000000002 1188.100000000001 C 684.5000000000002 1187.0000000000011 686.0000000000002 1186.0000000000011 686.8000000000002 1186.0000000000011 C 687.7000000000002 1186.0000000000011 688.0000000000002 1185.7000000000012 687.7000000000002 1185.300000000001 C 687.3000000000002 1185.0000000000011 688.9000000000002 1182.600000000001 691.3000000000002 1180.0000000000011 C 698.8000000000002 1171.600000000001 700.0000000000002 1170.0000000000011 700.0000000000002 1168.2000000000012 C 700.0000000000002 1167.7000000000012 700.9000000000002 1166.4000000000012 702.0000000000002 1165.2000000000012 C 703.2000000000003 1164.0000000000011 703.8000000000002 1163.0000000000011 703.5000000000002 1163.0000000000011 C 703.2000000000003 1163.0000000000011 703.7000000000003 1161.7000000000012 704.7000000000003 1160.0000000000011 C 705.6000000000003 1158.4000000000012 706.8000000000003 1157.0000000000011 707.3000000000003 1157.0000000000011 C 707.7000000000003 1157.0000000000011 707.9000000000003 1156.600000000001 707.5000000000003 1156.100000000001 C 707.2000000000004 1155.600000000001 707.6000000000004 1154.600000000001 708.3000000000003 1153.800000000001 C 709.0000000000003 1153.100000000001 709.7000000000003 1152.100000000001 709.8000000000003 1151.7000000000012 C 710.1000000000003 1149.800000000001 719.3000000000003 1136.1000000000013 720.6000000000003 1135.6000000000013 C 721.4000000000002 1135.3000000000013 721.8000000000003 1134.6000000000013 721.5000000000002 1134.0000000000014 C 721.2000000000003 1133.4000000000015 721.6000000000003 1132.7000000000014 722.4000000000002 1132.4000000000015 C 723.3000000000002 1132.1000000000015 723.8000000000002 1131.4000000000015 723.5000000000002 1130.9000000000015 C 723.2000000000003 1130.5000000000014 723.9000000000002 1129.6000000000015 725.0000000000002 1129.0000000000014 C 726.1000000000003 1128.4000000000015 726.8000000000002 1127.5000000000014 726.5000000000002 1127.1000000000013 C 726.2000000000003 1126.6000000000013 727.3000000000002 1124.8000000000013 728.9000000000002 1123.1000000000013 C 730.5000000000002 1121.4000000000012 731.6000000000003 1120.0000000000014 731.3000000000002 1120.0000000000014 C 731.1000000000001 1120.0000000000014 732.8000000000002 1117.4000000000015 735.3000000000002 1114.3000000000013 C 737.7000000000002 1111.1000000000013 741.5000000000002 1106.0000000000014 743.9000000000002 1102.8000000000013 C 746.2000000000002 1099.7000000000014 749.2000000000002 1096.0000000000014 750.5000000000002 1094.6000000000013 C 751.8000000000002 1093.2000000000012 752.7000000000003 1092.0000000000014 752.4000000000002 1092.0000000000014 C 752.2000000000002 1092.0000000000014 755.2000000000002 1087.7000000000014 759.1000000000003 1082.5000000000014 C 763.0000000000002 1077.3000000000013 766.7000000000003 1073.0000000000014 767.2000000000003 1073.0000000000014 C 767.7000000000003 1073.0000000000014 767.9000000000003 1072.6000000000013 767.5000000000002 1072.1000000000013 C 767.2000000000003 1071.5000000000014 768.3000000000002 1070.1000000000013 769.9000000000002 1068.9000000000012 C 771.6000000000003 1067.7000000000012 772.7000000000002 1066.3000000000013 772.4000000000002 1065.8000000000013 C 772.1000000000003 1065.4000000000012 772.6000000000003 1064.7000000000014 773.4000000000002 1064.4000000000012 C 774.3000000000002 1064.1000000000013 774.8000000000002 1063.4000000000012 774.5000000000002 1062.9000000000012 C 774.2000000000003 1062.5000000000011 774.9000000000002 1061.6000000000013 776.0000000000002 1061.0000000000011 C 777.1000000000003 1060.4000000000012 778.0000000000002 1059.300000000001 778.0000000000002 1058.4000000000012 C 778.0000000000002 1057.6000000000013 778.7000000000003 1056.7000000000012 779.5000000000002 1056.4000000000012 C 780.3000000000002 1056.0000000000011 780.8000000000002 1055.4000000000012 780.5000000000002 1055.0000000000011 C 780.2000000000003 1054.5000000000011 781.0000000000002 1053.4000000000012 782.2000000000003 1052.600000000001 C 783.4000000000003 1051.700000000001 784.0000000000002 1051.0000000000011 783.5000000000002 1051.0000000000011 C 782.9000000000002 1050.9000000000012 783.5000000000002 1050.100000000001 784.8000000000002 1049.0000000000011 C 786.1000000000001 1048.0000000000011 787.1000000000001 1046.7000000000012 787.1000000000001 1046.300000000001 C 787.1000000000001 1045.900000000001 788.4000000000001 1044.0000000000011 790.0000000000001 1042.300000000001 C 791.5000000000001 1040.5000000000011 792.6000000000001 1039.0000000000011 792.4000000000001 1039.0000000000011 C 791.7 1039.0000000000011 803.2 1024.5000000000011 804.6000000000001 1023.7000000000012 C 805.4000000000001 1023.2000000000012 805.8000000000002 1022.5000000000011 805.5000000000001 1021.9000000000012 C 805.1000000000001 1021.4000000000012 805.6000000000001 1020.7000000000012 806.4000000000001 1020.4000000000012 C 807.3000000000001 1020.1000000000013 807.7 1019.4000000000012 807.4000000000001 1018.9000000000012 C 806.4000000000001 1017.3000000000012 815.3000000000001 1014.0000000000013 820.7 1014.0000000000013 C 824.7 1014.0000000000013 826.5 1014.5000000000013 828.8000000000001 1016.5000000000013 C 832.3000000000001 1019.4000000000012 834.6 1026.6000000000013 833.5000000000001 1030.7000000000012 C 833.0000000000001 1032.2000000000012 832.7000000000002 1033.800000000001 832.8000000000001 1034.300000000001 C 832.9000000000001 1034.7000000000012 832.5000000000001 1035.0000000000011 831.9000000000001 1035.0000000000011 C 831.4000000000001 1035.0000000000011 831.1000000000001 1035.4000000000012 831.5000000000001 1035.9000000000012 C 831.8000000000001 1036.4000000000012 830.7000000000002 1038.3000000000013 829.1000000000001 1040.1000000000013 C 827.4000000000001 1041.9000000000012 826.2000000000002 1043.6000000000013 826.3000000000002 1043.9000000000012 C 826.4000000000002 1044.2000000000012 825.0000000000002 1046.0000000000011 823.2000000000002 1047.9000000000012 C 821.5000000000001 1049.8000000000013 820.3000000000002 1051.6000000000013 820.5000000000001 1051.8000000000013 C 820.7000000000002 1052.1000000000013 819.8000000000001 1053.1000000000013 818.5000000000001 1054.2000000000014 C 817.1000000000001 1055.3000000000013 816.0000000000001 1056.6000000000015 816.0000000000001 1057.1000000000015 C 816.0000000000001 1057.6000000000015 815.2000000000002 1058.9000000000015 814.3000000000001 1059.9000000000015 C 811.1 1063.4000000000015 810.0000000000001 1064.9000000000015 810.0000000000001 1065.7000000000014 C 810.0000000000001 1066.2000000000014 808.7000000000002 1068.0000000000014 807.1000000000001 1069.7000000000014 C 805.5000000000001 1071.5000000000014 804.4000000000001 1073.1000000000015 804.6000000000001 1073.3000000000013 C 804.9000000000001 1073.5000000000014 803.9000000000001 1074.5000000000014 802.5000000000001 1075.4000000000012 C 801.1000000000001 1076.3000000000013 800.0000000000001 1077.7000000000012 800.0000000000001 1078.5000000000011 C 800.0000000000001 1079.300000000001 799.6000000000001 1080.0000000000011 799.2000000000002 1080.0000000000011 C 798.8000000000002 1080.0000000000011 797.1000000000001 1082.0000000000011 795.6000000000001 1084.5000000000011 C 794.0000000000001 1087.0000000000011 792.4000000000001 1089.0000000000011 792.1000000000001 1089.0000000000011 C 791.7000000000002 1089.0000000000011 790.6000000000001 1090.5000000000011 789.5000000000001 1092.300000000001 C 787.5000000000001 1095.7000000000012 786.5000000000001 1097.0000000000011 783.8000000000001 1100.0000000000011 C 782.9000000000001 1101.0000000000011 782.4000000000001 1102.0000000000011 782.6 1102.300000000001 C 782.9 1102.600000000001 782 1103.7000000000012 780.6 1104.800000000001 C 779.2 1105.800000000001 778.3000000000001 1107.0000000000011 778.7 1107.300000000001 C 779 1107.7000000000012 778.5 1108.2000000000012 777.6 1108.600000000001 C 776.7 1108.900000000001 776 1109.800000000001 776 1110.5000000000011 C 776 1111.2000000000012 775.3 1112.100000000001 774.4 1112.4000000000012 C 773.6 1112.7000000000012 773.1 1113.4000000000012 773.5 1113.9000000000012 C 773.8 1114.5000000000011 773.1 1115.4000000000012 772 1116.0000000000011 C 770.9 1116.600000000001 770 1117.600000000001 770 1118.300000000001 C 770 1119.0000000000011 768.2 1121.300000000001 766 1123.400000000001 C 763.8 1125.600000000001 762 1127.900000000001 762 1128.600000000001 C 762 1129.300000000001 761.6 1130.0000000000011 761.2 1130.200000000001 C 760.8000000000001 1130.400000000001 758.5 1133.3000000000009 756.1 1136.8000000000009 C 753.7 1140.200000000001 751.3000000000001 1143.000000000001 750.9 1143.000000000001 C 750.4 1143.000000000001 750 1143.700000000001 750 1144.500000000001 C 750 1146.500000000001 752 1146.3000000000009 755 1144.000000000001 C 756.4 1142.900000000001 758.1 1142.000000000001 758.8 1142.000000000001 C 759.4 1142.000000000001 760 1141.700000000001 760 1141.3000000000009 C 760 1140.8000000000009 761.7 1139.4000000000008 763.8 1138.000000000001 C 765.8 1136.6000000000008 768.3 1134.8000000000009 769.3 1133.900000000001 C 770.1999999999999 1133.000000000001 772.3 1131.700000000001 773.8 1130.900000000001 C 775.3 1130.100000000001 776.6999999999999 1129.200000000001 777 1128.900000000001 C 777.3 1128.600000000001 782.9 1123.800000000001 789.5 1118.300000000001 C 796.1 1112.800000000001 803.5 1106.100000000001 806 1103.5000000000011 C 808.5 1101.0000000000011 811.8 1098.2000000000012 813.3 1097.4000000000012 C 814.8 1096.6000000000013 815.9 1095.6000000000013 815.5999999999999 1095.2000000000012 C 815.3999999999999 1094.800000000001 818.3999999999999 1091.0000000000011 822.3999999999999 1086.7000000000012 C 826.3999999999999 1082.5000000000011 829.3999999999999 1078.800000000001 829.1999999999998 1078.5000000000011 C 828.8999999999999 1078.300000000001 829.4999999999998 1077.800000000001 830.3999999999999 1077.4000000000012 C 831.2999999999998 1077.1000000000013 831.9999999999999 1076.2000000000012 831.9999999999999 1075.4000000000012 C 831.9999999999999 1074.7000000000012 832.8999999999999 1073.5000000000011 833.9999999999999 1072.7000000000012 C 835.0999999999999 1071.9000000000012 835.6999999999999 1071.0000000000011 835.3999999999999 1070.7000000000012 C 834.9999999999999 1070.300000000001 835.4999999999999 1069.800000000001 836.3999999999999 1069.4000000000012 C 837.2999999999998 1069.1000000000013 837.9999999999999 1068.4000000000012 837.9999999999999 1067.9000000000012 C 837.9999999999999 1066.4000000000012 845.1999999999999 1056.0000000000011 846.1999999999999 1056.0000000000011 C 846.6999999999999 1056.0000000000011 846.8 1055.600000000001 846.4999999999999 1055.0000000000011 C 846.1999999999999 1054.5000000000011 846.2999999999998 1054.0000000000011 846.7999999999998 1054.0000000000011 C 847.2999999999998 1054.0000000000011 847.6999999999998 1053.4000000000012 847.6999999999998 1052.800000000001 C 847.6999999999998 1050.900000000001 851.9999999999998 1044.0000000000011 853.1999999999998 1044.0000000000011 C 853.6999999999998 1044.0000000000011 853.8999999999999 1043.600000000001 853.4999999999998 1043.100000000001 C 853.1999999999998 1042.600000000001 853.7999999999997 1041.400000000001 854.6999999999998 1040.400000000001 C 855.5999999999998 1039.500000000001 856.4999999999998 1038.000000000001 856.6999999999998 1037.100000000001 C 856.7999999999998 1036.300000000001 857.4999999999998 1035.100000000001 858.2999999999998 1034.5000000000011 C 858.9999999999999 1034.0000000000011 859.8999999999999 1032.800000000001 860.1999999999998 1032.0000000000011 C 861.0999999999998 1029.7000000000012 872.1999999999998 1016.2000000000012 877.1999999999998 1011.3000000000011 C 879.5999999999998 1009.0000000000011 888.3999999999999 1000.100000000001 896.8999999999999 991.600000000001 C 905.3999999999999 983.000000000001 912.7999999999998 976.000000000001 913.2999999999998 976.000000000001 C 913.7999999999998 976.000000000001 919.3999999999999 970.7000000000011 925.8999999999999 964.300000000001 C 932.2999999999998 957.800000000001 941.9999999999999 948.300000000001 947.4999999999999 943.1000000000009 C 952.9999999999999 937.9000000000009 959.0999999999999 932.200000000001 960.9999999999999 930.300000000001 C 962.9999999999999 928.500000000001 965.0999999999999 927.000000000001 965.7999999999998 927.000000000001 C 966.4999999999999 927.000000000001 966.9999999999999 926.400000000001 966.9999999999999 925.7000000000011 C 966.9999999999999 924.2000000000011 986.1999999999999 906.000000000001 989.6999999999999 904.100000000001 C 990.9999999999999 903.500000000001 991.9 902.600000000001 991.8 902.2000000000011 C 991.5 901.2000000000011 1005.5 888.000000000001 1006.9 888.000000000001 C 1007.6 888.000000000001 1007.8 887.500000000001 1007.5 887.000000000001 C 1007.2 886.400000000001 1007.3 886.000000000001 1007.9 886.000000000001 C 1008.5 886.000000000001 1009.8 885.100000000001 1010.9 883.900000000001 C 1012.6 882.000000000001 1013.1999999999999 881.900000000001 1016.3 882.900000000001 C 1018.0999999999999 883.500000000001 1020.1999999999999 885.100000000001 1020.8 886.300000000001 C 1022.3 889.1000000000009 1025.3999999999999 907.800000000001 1028.7 933.000000000001 C 1030.7 948.100000000001 1031.4 959.000000000001 1031.9 981.300000000001 C 1032.2 997.300000000001 1032.1000000000001 1010.000000000001 1031.6000000000001 1010.000000000001 C 1031.2 1010.000000000001 1031.0000000000002 1011.2000000000011 1031.3000000000002 1012.7000000000011 C 1031.6000000000001 1014.2000000000011 1031.4 1016.2000000000011 1031.0000000000002 1017.100000000001 C 1030.5000000000002 1018.000000000001 1029.4000000000003 1026.100000000001 1028.5000000000002 1035.100000000001 C 1026.0000000000002 1061.300000000001 1024.3000000000002 1070.800000000001 1014.7000000000003 1110.5000000000011 C 1014.6000000000003 1111.100000000001 1014.1000000000003 1112.100000000001 1013.7000000000003 1112.800000000001 C 1013.2000000000003 1113.5000000000011 1012.8000000000003 1115.400000000001 1012.8000000000003 1117.0000000000011 C 1012.7000000000003 1118.7000000000012 1012.3000000000003 1120.0000000000011 1011.7000000000003 1120.0000000000011 C 1011.2000000000003 1120.0000000000011 1011.0000000000002 1120.7000000000012 1011.4000000000003 1121.5000000000011 C 1011.7000000000003 1122.300000000001 1011.5000000000003 1123.0000000000011 1010.9000000000003 1123.0000000000011 C 1010.4000000000003 1123.0000000000011 1010.0000000000003 1123.600000000001 1010.1000000000004 1124.300000000001 C 1010.2000000000004 1124.900000000001 1009.8000000000004 1126.800000000001 1009.2000000000004 1128.300000000001 C 1008.5000000000003 1129.900000000001 1008.0000000000003 1132.2000000000012 1008.0000000000003 1133.5000000000011 C 1008.0000000000003 1134.800000000001 1007.6000000000004 1136.0000000000011 1007.0000000000003 1136.2000000000012 C 1006.5000000000003 1136.4000000000012 1005.9000000000003 1137.4000000000012 1005.7000000000004 1138.5000000000011 C 1005.5000000000003 1139.600000000001 1004.6000000000004 1142.100000000001 1003.7000000000004 1144.0000000000011 C 1002.9000000000004 1145.9000000000012 1002.0000000000003 1148.4000000000012 1001.8000000000004 1149.5000000000011 C 1001.7000000000004 1150.600000000001 1001.3000000000004 1151.7000000000012 1001.0000000000005 1152.0000000000011 C 1000.7000000000005 1152.300000000001 998.5000000000005 1157.5000000000011 996.2000000000005 1163.5000000000011 C 993.8000000000005 1169.600000000001 991.0000000000005 1176.2000000000012 989.9000000000005 1178.300000000001 C 988.9000000000005 1180.5000000000011 988.0000000000006 1182.600000000001 988.0000000000006 1183.2000000000012 C 988.0000000000006 1183.7000000000012 987.3000000000005 1184.800000000001 986.5000000000006 1185.7000000000012 C 985.7000000000006 1186.5000000000011 985.2000000000006 1187.6000000000013 985.5000000000006 1188.1000000000013 C 985.9000000000005 1188.6000000000013 985.6000000000006 1189.0000000000014 985.0000000000006 1189.0000000000014 C 984.4000000000005 1189.0000000000014 984.1000000000006 1189.4000000000015 984.4000000000005 1189.9000000000015 C 984.8000000000005 1190.4000000000015 984.6000000000006 1191.0000000000014 984.2000000000005 1191.2000000000014 C 983.7000000000005 1191.3000000000013 981.3000000000005 1195.6000000000015 978.8000000000005 1200.5000000000014 C 976.4000000000005 1205.5000000000014 973.6000000000005 1210.7000000000014 972.6000000000005 1212.3000000000013 C 971.6000000000005 1213.8000000000013 971.1000000000005 1215.0000000000014 971.5000000000005 1215.0000000000014 C 971.8000000000004 1215.0000000000014 971.4000000000004 1215.7000000000014 970.6000000000005 1216.6000000000013 C 969.7000000000005 1217.4000000000012 969.0000000000005 1218.8000000000013 969.0000000000005 1219.6000000000013 C 969.0000000000005 1220.4000000000012 968.6000000000005 1221.0000000000014 968.1000000000005 1221.0000000000014 C 967.7000000000005 1221.0000000000014 966.5000000000005 1223.0000000000014 965.6000000000005 1225.5000000000014 C 964.6000000000005 1228.0000000000014 963.0000000000005 1230.6000000000013 962.0000000000005 1231.3000000000013 C 961.0000000000005 1232.0000000000014 960.0000000000005 1233.2000000000014 959.8000000000004 1234.0000000000014 C 959.6000000000004 1234.8000000000013 958.5000000000005 1236.5000000000014 957.3000000000004 1237.9000000000015 C 956.1000000000004 1239.2000000000014 954.3000000000004 1241.9000000000015 953.3000000000004 1243.9000000000015 C 952.3000000000004 1245.9000000000015 951.0000000000005 1248.0000000000014 950.4000000000004 1248.5000000000014 C 948.7000000000004 1250.2000000000014 943.5000000000005 1257.5000000000014 943.5000000000005 1258.3000000000013 C 943.5000000000005 1258.7000000000014 942.8000000000004 1259.5000000000014 942.0000000000005 1260.0000000000014 C 941.2000000000005 1260.5000000000014 940.8000000000004 1261.0000000000014 941.2000000000005 1261.0000000000014 C 941.6000000000005 1261.0000000000014 940.5000000000005 1262.6000000000013 938.7000000000005 1264.5000000000014 C 936.9000000000005 1266.4000000000015 935.5000000000005 1268.4000000000015 935.5000000000005 1268.8000000000013 C 935.5000000000005 1269.2000000000014 933.8000000000004 1271.3000000000013 931.8000000000004 1273.4000000000012 C 929.7000000000004 1275.6000000000013 928.0000000000005 1277.7000000000012 928.0000000000005 1278.2000000000012 C 928.0000000000005 1278.7000000000012 926.3000000000004 1280.800000000001 924.3000000000004 1282.9000000000012 C 922.2000000000004 1284.9000000000012 919.2000000000004 1288.3000000000013 917.5000000000005 1290.4000000000012 C 915.9000000000004 1292.5000000000011 912.6000000000005 1296.1000000000013 910.2000000000005 1298.6000000000013 C 907.9000000000005 1301.0000000000014 906.2000000000005 1303.0000000000014 906.5000000000005 1303.0000000000014 C 906.8000000000004 1303.0000000000014 904.0000000000005 1305.9000000000015 900.4000000000004 1309.5000000000014 C 896.7000000000004 1313.1000000000013 893.4000000000004 1316.0000000000014 892.9000000000004 1316.0000000000014 C 892.4000000000004 1316.0000000000014 892.1000000000005 1316.5000000000014 892.3000000000004 1317.2000000000014 C 892.4000000000004 1317.8000000000013 891.4000000000004 1318.9000000000015 890.0000000000005 1319.6000000000015 C 888.6000000000005 1320.3000000000015 885.3000000000004 1323.4000000000015 882.5000000000005 1326.3000000000015 C 879.8000000000004 1329.3000000000015 877.0000000000005 1331.9000000000015 876.3000000000004 1332.1000000000015 C 875.1000000000004 1332.5000000000016 863.4000000000004 1342.6000000000015 858.9000000000004 1347.3000000000015 C 857.4000000000004 1348.8000000000015 855.7000000000004 1350.0000000000016 855.1000000000005 1350.0000000000016 C 854.5000000000005 1350.0000000000016 853.5000000000005 1350.9000000000017 852.8000000000005 1352.0000000000016 C 852.1000000000005 1353.1000000000015 851.0000000000006 1354.0000000000016 850.4000000000005 1354.0000000000016 C 849.8000000000005 1354.0000000000016 847.6000000000006 1355.5000000000016 845.6000000000006 1357.3000000000015 C 839.9000000000005 1362.4000000000015 837.7000000000006 1364.1000000000015 835.3000000000006 1365.1000000000015 C 834.0000000000007 1365.6000000000015 833.0000000000007 1366.4000000000015 833.0000000000007 1367.0000000000016 C 833.0000000000007 1367.5000000000016 832.4000000000007 1368.0000000000016 831.7000000000007 1368.0000000000016 C 831.0000000000007 1368.0000000000016 829.4000000000008 1368.9000000000017 828.2000000000007 1370.0000000000016 C 827.0000000000007 1371.1000000000015 825.8000000000008 1372.0000000000016 825.4000000000008 1372.0000000000016 C 825.0000000000008 1372.0000000000016 822.5000000000008 1373.6000000000015 819.9000000000008 1375.5000000000016 C 817.2000000000007 1377.4000000000017 814.7000000000007 1379.0000000000016 814.3000000000008 1379.0000000000016 C 814.0000000000008 1379.0000000000016 812.2000000000007 1380.1000000000015 810.4000000000008 1381.5000000000016 C 808.6000000000008 1382.9000000000017 806.7000000000007 1384.0000000000016 806.1000000000008 1384.0000000000016 C 805.5000000000008 1384.0000000000016 805.0000000000008 1384.5000000000016 805.0000000000008 1385.0000000000016 C 805.0000000000008 1385.6000000000015 804.4000000000008 1386.0000000000016 803.6000000000008 1386.0000000000016 C 802.8000000000009 1386.0000000000016 801.5000000000008 1386.6000000000015 800.8000000000009 1387.3000000000015 C 800.1000000000008 1388.0000000000016 796.1000000000008 1390.4000000000015 792.0000000000009 1392.5000000000016 C 787.9000000000009 1394.7000000000016 784.4000000000009 1396.8000000000015 784.200000000001 1397.2000000000016 C 784.0000000000009 1397.7000000000016 783.5000000000009 1398.0000000000016 783.0000000000009 1398.0000000000016 C 782.6000000000009 1398.0000000000016 775.3000000000009 1401.3000000000015 766.9000000000009 1405.3000000000015 C 738.4000000000009 1418.9000000000015 719.7000000000008 1425.6000000000015 679.0000000000009 1437.0000000000016 C 677.1000000000009 1437.5000000000016 669.700000000001 1439.1000000000015 662.5000000000009 1440.5000000000016 C 622.1000000000009 1448.3000000000015 596.700000000001 1451.0000000000016 566.200000000001 1450.9000000000017 C 553.200000000001 1450.8000000000018 540.5000000000009 1450.4000000000017 538.1000000000009 1449.9000000000017 z" stroke-linecap="round"></path>
</g>
</svg>