<svg xmlns:inkscape="http://www.inkscape.org/namespaces/inkscape" xmlns:sodipodi="http://sodipodi.sourceforge.net/DTD/sodipodi-0.dtd" xmlns="http://www.w3.org/2000/svg" xmlns:svg="http://www.w3.org/2000/svg" preserveAspectRatio="none" data-bbox="9 8.021 1349 93.82" viewBox="9 8.021 1349 93.82" data-type="shape" aria-hidden="true" id="svg960" sodipodi:docname="Home _ Paid Advertising Agency _ Web Design _ Expertcreativity.com-1.svg" inkscape:version="1.1.1 (3bf5ae0d25, 2021-09-20)"><defs id="defs964"></defs><g id="g958" style="fill:#ffffff;fill-opacity:1"><path d="M86 9.3c0 .5 6.1 9.2 13.7 19.4l13.6 18.4 2.4-2.8c4.5-5.4 4.7-5-5.9-19.3-5.4-7.4-10.3-14.1-10.7-14.8C98.2 8.7 86 7.9 86 9.3z" id="path898" style="fill:#ffffff;fill-opacity:1"></path><path d="m159.7 8.8-5.8.3-7.7 10.6c-4.2 5.8-15.6 21.2-25.3 34.2-9.6 13-21.5 28.9-26.2 35.4l-8.8 11.8 6.8-.3 6.7-.3L112.2 83c7.1-9.6 13.2-17.6 13.7-17.8.5-.1 6.8 7.8 14 17.8l13.2 18H166l-8.7-11.8c-25.7-34.8-24.7-33.3-23.3-35.6.7-1.1 8.3-11.4 16.7-22.8 8.5-11.5 15.3-21.1 15.1-21.5-.1-.5-2.9-.7-6.1-.5z" id="path900" style="fill:#ffffff;fill-opacity:1"></path><path d="M186.4 8.9c-.5.6-.5 35.6 0 36.2.2.2 2.9.2 6 .1l5.6-.4V18.9l15.8.3c14.6.3 15.9.5 19 2.6 10.6 7.6 10.1 27.3-.8 33.6-3.2 1.9-5.4 2.1-24.5 2.3l-21 .3-.3 21.5-.2 21.5h12V68.1l17.3-.3c14.6-.3 17.8-.6 21.1-2.2 17.5-8.7 21.6-33.7 7.8-47.9-7.9-8.1-7.9-8.1-34-8.7-12.9-.3-23.6-.3-23.8-.1z" id="path902" style="fill:#ffffff;fill-opacity:1"></path><path d="M361.4 8.9c-.2.2-.4 21.1-.4 46.3V101h12V68h5.5c3 0 5.5-.2 5.5-.5 0-.2-1.2-2.4-2.7-4.9-1.9-3.2-3.5-4.6-5.3-4.8l-2.5-.3-.3-19.3L373 19h15c13.1 0 15.6.3 19 2 5 2.6 9 9.2 9.6 16.2.5 4.5.1 6.2-2.3 10.8-3.5 6.8-6.8 8.8-16.1 9.8l-7 .7 13.6 21.3 13.5 21.2h6.4c3.4 0 6.3-.2 6.3-.5s-4.5-7.7-9.9-16.3c-5.5-8.7-10.3-16.5-10.6-17.4-.4-1.1.1-1.7 2-2.2 1.4-.4 4.6-2.5 6.9-4.7 12.1-11 12.1-31 .2-43.1-7-7.1-7.5-7.2-33.9-7.8-13.1-.3-24.1-.3-24.3-.1z" id="path904" style="fill:#ffffff;fill-opacity:1"></path><path d="M481.3 8.8 444 9v10h76v-4.9c0-2.8-.3-5.1-.7-5.3-.5-.2-17.6-.2-38 0z" id="path906" style="fill:#ffffff;fill-opacity:1"></path><path d="M597.6 9.1c-16.2 3.8-28.8 18-33 37.1L564 49h6c4 0 6.2-.4 6.4-1.3 1.7-6.7 4.5-13.1 7.7-17.4 11.5-15.3 37.3-15.3 46.8.1 1.3 2 2.5 3.6 2.7 3.6 1.3 0 8.4-5.4 8.4-6.4 0-2.5-6.3-9.6-11.4-13-8.9-5.9-22-8.1-33-5.5z" id="path908" style="fill:#ffffff;fill-opacity:1"></path><path d="M789.3 8.8 759 9v28h12V19h50v-4.9c0-2.8-.3-5.1-.7-5.3-.5-.2-14.4-.2-31 0z" id="path910" style="fill:#ffffff;fill-opacity:1"></path><path d="M924.4 8.9c-.2.2-.4 2.6-.4 5.3V19h76V9l-37.6-.2c-20.7-.2-37.8-.1-38 .1z" id="path912" style="fill:#ffffff;fill-opacity:1"></path><path d="M1020.4 8.9c-.2.2-.4 21.1-.4 46.3V101h12l-.2-46.1-.3-46.1-5.3-.2c-3 0-5.6.1-5.8.3z" id="path914" style="fill:#ffffff;fill-opacity:1"></path><path d="M1057.2 8.8c-3.7.2-5.2.7-4.9 1.5 9.8 24.3 30 73.3 30.3 73.6.5.5 5.4-10.9 5.4-12.7 0-2.3-23-60.5-24.3-61.7-.7-.6-3.6-.9-6.5-.7z" id="path916" style="fill:#ffffff;fill-opacity:1"></path><path d="M1157.7 8.7c-.1.1-.1 20.9.1 46.2l.2 46.1h11V8.5h-5.6c-3 0-5.6.1-5.7.2z" id="path918" style="fill:#ffffff;fill-opacity:1"></path><path d="M1277.5 9c-.2.3 6 11 13.7 23.9l14.1 23.4 1.8-2.4c5-6.6 5.1-6.3-6.4-26.1l-10.5-18.3-6.2-.5c-3.4-.3-6.3-.3-6.5 0z" id="path920" style="fill:#ffffff;fill-opacity:1"></path><path d="M1346.1 9c-.6.4-21.3 35.5-31.4 53.2-2.6 4.5-2.7 5-2.7 21.7V101h12V66.9l17-28.5c9.4-15.7 17-28.7 17-28.9 0-.5-11.1-1-11.9-.5z" id="path922" style="fill:#ffffff;fill-opacity:1"></path><path d="M9 23v14h12V19h50V9H9v14z" id="path924" style="fill:#ffffff;fill-opacity:1"></path><path d="M275 23v14h11V19h50V9h-61v14z" id="path926" style="fill:#ffffff;fill-opacity:1"></path><path d="M666 55v46h12V68h5.5c3 0 5.5-.3 5.5-.6s-1.2-2.5-2.6-4.9c-1.8-3.2-3.2-4.5-5.2-4.7l-2.7-.3-.3-19.3L678 19h15.2c17.6 0 20.3.8 25.2 7.8 5.6 7.9 4.3 20.9-2.5 26.6-3.6 3.1-9.9 4.9-15.1 4.4-2.1-.2-3.8 0-3.8.5s6 10.3 13.3 21.8l13.2 20.9H737l-2.3-3.7c-1.4-2.1-5.6-8.8-9.4-14.9-3.9-6.1-7.8-12.3-8.8-13.7-1.6-2.6-1.6-2.6 2.2-4.6 2.1-1 5.8-4 8-6.4 12.6-13.7 7.9-37.7-8.9-46.1C712.7 9 712.4 9 689.3 9H666v46z" id="path928" style="fill:#ffffff;fill-opacity:1"></path><path d="M872.5 12.2c-.9 1.8-9.4 22.4-18.9 45.8l-17.4 42.5 5.5.3c3.1.2 5.9-.1 6.3-.5.9-1 33.7-85.1 34.6-88.7.6-2.5.5-2.6-4-2.6-4.3 0-4.8.3-6.1 3.2z" id="path930" style="fill:#ffffff;fill-opacity:1"></path><path d="M1122.6 15.6c-1.5 3.6-8.2 20.8-15.1 38.2-6.8 17.4-13.8 34.9-15.4 38.9-1.7 4-3.1 7.5-3.1 7.8 0 .3 2.5.5 5.6.3l5.5-.3 18.5-45c10.1-24.8 18.4-45.3 18.4-45.8 0-.4-2.7-.7-5.9-.7h-5.9l-2.6 6.6z" id="path932" style="fill:#ffffff;fill-opacity:1"></path><path d="M1190 14v5h76V9h-76v5z" id="path934" style="fill:#ffffff;fill-opacity:1"></path><path d="m886 28.9-2.2 6 5.6 14.3c3.1 7.9 5.6 14.7 5.6 15.1 0 .4-5.1.7-11.4.7h-11.4l-1 2.7c-.5 1.6-1.3 3.6-1.7 4.5-.6 1.6.6 1.8 14.1 2l14.8.3 5.2 13 5.2 13 6.1.3c3.4.2 6.1-.1 6.1-.5 0-1.6-31.3-77.3-32-77.3-.4 0-1.8 2.7-3 5.9z" id="path936" style="fill:#ffffff;fill-opacity:1"></path><path d="M476 66v35h12V31h-12v35z" id="path938" style="fill:#ffffff;fill-opacity:1"></path><path d="M956 66v35h12V31h-12v35z" id="path940" style="fill:#ffffff;fill-opacity:1"></path><path d="M1222 66v35h12V31h-12v35z" id="path942" style="fill:#ffffff;fill-opacity:1"></path><path d="M9 64v15h12V59h43V49H9v15z" id="path944" style="fill:#ffffff;fill-opacity:1"></path><path d="M275 64v15h11V59h44V49h-55v15z" id="path946" style="fill:#ffffff;fill-opacity:1"></path><path d="M759 64v15h12V59l21.8-.2 21.7-.3.3-4.8.3-4.7H759v15z" id="path948" style="fill:#ffffff;fill-opacity:1"></path><path d="M564.7 60.7c-.9 1.5 2.3 11.6 5.4 17.4 4 7.4 14.2 17.2 21.4 20.5 10.7 4.9 25.1 4.2 36.8-1.8 7.3-3.7 16.9-14.1 15.3-16.7-.3-.4-2.3-1.6-4.5-2.6l-4-1.8-4.7 5.2c-6.7 7.5-13 10.3-22.9 10.3-13.2 0-25.2-10-29.6-24.4l-2.1-6.8h-5.3c-3 0-5.6.3-5.8.7z" id="path950" style="fill:#ffffff;fill-opacity:1"></path><path d="M9 96v5h63V91H9v5z" id="path952" style="fill:#ffffff;fill-opacity:1"></path><path d="M275 96v5h63V91h-63v5z" id="path954" style="fill:#ffffff;fill-opacity:1"></path><path d="M759 96v5h63V91h-63v5z" id="path956" style="fill:#ffffff;fill-opacity:1"></path></g></svg>